<?xml version="1.0" encoding="utf-8"?>
<!-- Generator: Adobe Illustrator 25.2.1, SVG Export Plug-In . SVG Version: 6.00 Build 0)  -->
<svg version="1.1" id="Layer_1" xmlns="http://www.w3.org/2000/svg"  width="456" height="456" x="0px" y="0px"
	 viewBox="0 0 595.3 841.9" >
<style type="text/css">
	.st0{fill-rule:evenodd;clip-rule:evenodd;fill:url(#SVGID_1_);}
</style>
<g>
	
		<linearGradient id="SVGID_1_" gradientUnits="userSpaceOnUse" x1="181.33" y1="408.0652" x2="482.4628" y2="408.0598" gradientTransform="matrix(1 0 0 -1 0 842.5511)">
		<stop  offset="0" style="stop-color:#D94881"/>
		<stop  offset="1" style="stop-color:#F07D80"/>
	</linearGradient>
	<path class="st0" d="M479.3,389.6v-48.3c0-7.3-3.7-13.6-9.9-17.3l-161.8-93.5c-6.3-3.7-13.6-3.7-20.1,0l-57.9,33.3
		c-6.3,3.7-9.9,9.9-9.9,17.3v66.8c0,7.3,3.7,13.6,9.9,17.3l184.6,106.6l12.9-22.5v60l-51.8,30l12.9-22.5l-168.8-97.4v53.1
		c0,4.4,2.3,8.2,5.9,10.5l165.8,95.6c6.3,3.7,13.6,3.7,20.1,0l57.9-33.3c6.3-3.7,9.9-9.9,9.9-17.3v-66.8c0-7.3-3.7-13.6-9.9-17.3
		L284.6,337.2l-12.9,22.5v-60l26-15l26-15l-12.9,22.5L479.3,389.6L479.3,389.6z M80,290.4L281.6,174c10.1-5.9,21.8-5.9,31.9,0
		l201.7,116.4c10.1,5.9,16.1,15.9,16.1,27.7V551c0,11.7-5.8,21.8-16.1,27.7L313.7,695.1c-10.1,5.9-21.8,5.9-31.9,0L80.2,578.7
		c-10.1-5.9-16.1-15.9-16.1-27.7V318C64,306.3,69.7,296.2,80,290.4L80,290.4z M38.1,254.7l233.5-134.9c16.6-9.6,35.4-9.6,52,0
		l233.5,134.9c16.6,9.6,26,26,26,45v269.6c0,19-9.4,35.4-26,45L323.7,749.2c-16.6,9.6-35.4,9.6-52,0L38.1,614.3
		c-16.6-9.6-26-26-26-45V299.7C12.1,280.5,21.6,264.2,38.1,254.7L38.1,254.7z M116,341.2c0-7.3,3.7-13.6,9.9-17.3l41.9-24.3v203
		c0,4.4,2.3,8.2,5.9,10.5l175.7,101.2l-41.9,24.3c-6.3,3.7-13.6,3.7-20.1,0l-161.8-93.4c-6.3-3.7-9.9-9.9-9.9-17.3V341.2H116z"/>
</g>
</svg>
