<svg xmlns="http://www.w3.org/2000/svg" xmlns:xlink="http://www.w3.org/1999/xlink" version="1.1" id="Layer_1" x="0px" y="0px" viewBox="0 0 25 25" enable-background="new 0 0 25 25" xml:space="preserve">
<g>
	<linearGradient id="SVGID_1_" gradientUnits="userSpaceOnUse" x1="15.9061" y1="12.5452" x2="16.2174" y2="12.5452">
		<stop offset="0" style="stop-color:#D84981"/>
		<stop offset="1" style="stop-color:#EE7D80"/>
	</linearGradient>
	<circle fill="url(#SVGID_1_)" cx="16.03" cy="12.55" r="0.3"/>
	<linearGradient id="SVGID_2_" gradientUnits="userSpaceOnUse" x1="6.0811" y1="12.5" x2="18.9189" y2="12.5">
		<stop offset="0" style="stop-color:#D84981"/>
		<stop offset="1" style="stop-color:#EE7D80"/>
	</linearGradient>
	<path fill="none" stroke="url(#SVGID_2_)" stroke-width="0.3" stroke-miterlimit="10" d="M18.53,11.64h-0.3V11.5V9.22   c0-0.4-0.32-0.72-0.72-0.72H6.95c-0.4,0-0.72,0.32-0.72,0.72v6.56c0,0.4,0.32,0.72,0.72,0.72h10.56c0.4,0,0.72-0.32,0.72-0.72V13.5   v-0.14h0.3c0.13,0,0.24-0.11,0.24-0.24v-1.25C18.77,11.74,18.66,11.64,18.53,11.64z"/>
	<linearGradient id="SVGID_3_" gradientUnits="userSpaceOnUse" x1="15.1609" y1="12.5" x2="18.9189" y2="12.5">
		<stop offset="0" style="stop-color:#D84981"/>
		<stop offset="1" style="stop-color:#EE7D80"/>
	</linearGradient>
	<path fill="none" stroke="url(#SVGID_3_)" stroke-width="0.3" stroke-miterlimit="10" d="M15.55,13.36h2.98   c0.13,0,0.24-0.11,0.24-0.24v-1.25c0-0.13-0.11-0.24-0.24-0.24h-2.98c-0.13,0-0.24,0.11-0.24,0.24v1.25   C15.31,13.26,15.42,13.36,15.55,13.36z"/>
</g>
<linearGradient id="SVGID_4_" gradientUnits="userSpaceOnUse" x1="9.1053" y1="12.5" x2="11.0718" y2="12.5">
	<stop offset="0" style="stop-color:#D94881"/>
	<stop offset="1" style="stop-color:#F07D80"/>
</linearGradient>
<path fill-rule="evenodd" clip-rule="evenodd" fill="url(#SVGID_4_)" d="M11.06,12.2c-0.02-0.09,0.05-0.38-0.07-0.43  c0,0-1.06-0.61-1.06-0.61c-0.1-0.08-0.42,0.19-0.51,0.22c-0.04,0.02-0.07,0.07-0.07,0.11v0.44c-0.1,0.1,1.24,0.76,1.27,0.81  l0.08-0.15v0.39l-0.34,0.2l0.08-0.15l-1.1-0.64v0.35c-0.07,0.05,1.11,0.67,1.12,0.69c0.1,0.08,0.42-0.19,0.51-0.22  c0.04-0.02,0.07-0.07,0.07-0.11v-0.43c0.1-0.1-1.25-0.77-1.28-0.82L9.69,12v-0.4c0.09-0.05,0.26-0.15,0.34-0.2l-0.09,0.15  L11.06,12.2L11.06,12.2z M8.44,11.55c1.88-1.02,0.97-1.02,2.85,0c0.07,0.04,0.1,0.1,0.1,0.18v1.52c0,0.08-0.04,0.14-0.1,0.18  l-1.32,0.76c-0.06,0.04-0.14,0.04-0.21,0l-1.32-0.76c-0.07-0.04-0.1-0.1-0.1-0.18v-1.52C8.33,11.65,8.37,11.59,8.44,11.55z   M8.17,11.31c2.22-1.21,1.17-1.21,3.39,0c0.11,0.06,0.17,0.17,0.17,0.29v1.76c0,0.12-0.06,0.23-0.17,0.29l-1.53,0.88  c-0.11,0.06-0.23,0.06-0.34,0l-1.53-0.88C8.06,13.6,8,13.49,8,13.37v-1.76C8,11.48,8.06,11.38,8.17,11.31L8.17,11.31z M8.74,11.76  l0.28-0.16c0.02,0.02-0.04,1.46,0.04,1.41c0,0,1.16,0.67,1.16,0.67c-0.09,0.03-0.31,0.23-0.41,0.16c0,0-1.07-0.62-1.07-0.62  c-0.13,0.01-0.04-1.28-0.07-1.34C8.67,11.82,8.7,11.78,8.74,11.76z"/>
</svg>