<svg xmlns="http://www.w3.org/2000/svg" viewBox="0 0 122.47 94.98"><defs><style>.cls-1{fill:#fff;}</style></defs><g id="Layer_2" data-name="Layer 2"><g id="Layer_2-2" data-name="Layer 2"><path class="cls-1" d="M115.93,1.84,91.42,64.35,84.52,82A2.52,2.52,0,0,0,86.27,85a2.54,2.54,0,0,0,3.07-1.75l24.52-62.51,6.9-17.59A2.53,2.53,0,0,0,119,.09a2.57,2.57,0,0,0-3.08,1.75Z"/><path class="cls-1" d="M116.18,22.8l5-12.76-1,2.66"/><path class="cls-1" d="M117.39,23.13l5-12.76A1.25,1.25,0,0,0,120,9.71l-1,2.66a1.25,1.25,0,0,0,.87,1.53,1.28,1.28,0,0,0,1.54-.87l1-2.66L120,9.71l-5,12.76a1.26,1.26,0,0,0,.87,1.54,1.29,1.29,0,0,0,1.54-.88Z"/><path class="cls-1" d="M3.75,92.72a14.58,14.58,0,0,1,9.12-12.3c5.33-2.17,10.63-.31,15.24,2.63S37,90,42.13,92.44a24.82,24.82,0,0,0,18.21,1.43c6.27-2,11.19-6.65,15-11.79a1.87,1.87,0,0,0-.67-2.56,1.9,1.9,0,0,0-2.56.67C68.82,84.63,64.41,88.76,59,90.37a21.51,21.51,0,0,1-17.39-2.5c-4.93-2.94-9.15-7-14.25-9.61-5.31-2.75-11.16-3.48-16.7-.93A18.31,18.31,0,0,0,0,92.72c-.12,2.41,3.63,2.4,3.75,0Z"/></g></g></svg>