<svg width="137" height="34" viewBox="0 0 137 34" fill="none" xmlns="http://www.w3.org/2000/svg">
<g id="Logo" clip-path="url(#clip0_609:677)">
<g id="Circle">
<circle id="Oval" cx="15" cy="18" r="15" fill="#5B5B5B"/>
<path id="D" d="M16.175 10.9443C18.1083 10.9443 19.7217 11.6177 21.015 12.9643C22.3217 14.2977 22.975 15.9577 22.975 17.9443C22.975 19.931 22.3217 21.5977 21.015 22.9443C19.7217 24.2777 18.1083 24.9443 16.175 24.9443H10.475V10.9443H16.175ZM16.175 21.4843C17.1483 21.4843 17.9417 21.1643 18.555 20.5243C19.1683 19.871 19.475 19.011 19.475 17.9443C19.475 16.8777 19.1683 16.0243 18.555 15.3843C17.9417 14.731 17.1483 14.4043 16.175 14.4043H14.155V21.4843H16.175Z" fill="white"/>
</g>
<path id="deski." d="M43.7041 19.424C43.7041 21.792 44.5041 23.872 46.1041 25.632C47.7041 27.392 49.7201 28.256 52.1201 28.256C53.0161 28.256 54.0401 28.032 55.1921 27.552C56.3761 27.072 57.2401 26.336 57.8481 25.344V28H61.5601V1.952H57.7521V13.344C57.1761 12.416 56.3441 11.744 55.2241 11.296C54.1361 10.816 53.1441 10.592 52.2161 10.592C49.6881 10.592 47.6081 11.488 46.0401 13.28C44.4721 15.072 43.7041 17.12 43.7041 19.424ZM52.6961 14.016C54.2001 14.016 55.4161 14.528 56.3761 15.584C57.3361 16.64 57.8161 17.92 57.8161 19.424C57.8161 20.928 57.3361 22.208 56.3761 23.264C55.4481 24.288 54.2001 24.8 52.6961 24.8C51.1921 24.8 49.9441 24.288 48.9841 23.264C48.0561 22.208 47.5761 20.928 47.5761 19.424C47.5761 17.92 48.0561 16.64 48.9841 15.584C49.9441 14.528 51.1921 14.016 52.6961 14.016ZM82.3814 20.576C82.4134 20.288 82.4454 19.904 82.4454 19.392C82.4454 16.736 81.7094 14.624 80.2374 12.992C78.7654 11.36 76.7174 10.56 74.1254 10.56C71.6614 10.56 69.6134 11.424 67.9814 13.152C66.3494 14.88 65.5174 16.96 65.5174 19.424C65.5174 21.952 66.3814 24.096 68.0774 25.792C69.8054 27.488 71.9494 28.32 74.4774 28.32C77.5494 28.32 80.3334 26.848 81.7734 24.192L79.0214 22.368C78.0934 24.128 76.5574 25.024 74.4134 25.024C73.1014 25.024 71.9494 24.608 70.9574 23.776C69.9654 22.912 69.4534 21.856 69.4214 20.576H82.3814ZM74.1254 13.824C76.5574 13.824 78.4454 15.296 78.5734 17.696H69.6134C69.9654 15.36 71.7894 13.824 74.1254 13.824ZM91.8929 28.288C93.8129 28.288 95.3809 27.808 96.5649 26.816C97.7489 25.824 98.3569 24.544 98.3569 22.976C98.3569 20.32 96.3089 18.464 92.4369 17.6C90.2289 17.12 89.2689 16.544 89.2689 15.424C89.2689 14.496 90.4849 13.76 91.6689 13.76C93.3009 13.76 94.4849 14.528 95.2529 16.064L98.1969 14.4C97.0129 11.84 94.8689 10.56 91.7969 10.56C90.1329 10.56 88.6929 11.04 87.4449 12.032C86.1969 13.024 85.5889 14.272 85.5889 15.808C85.5889 17.024 86.0049 18.048 86.8049 18.912C87.7329 19.904 89.1729 20.576 91.0609 20.96C93.3969 21.44 94.5809 22.208 94.5809 23.2C94.5809 24.352 93.3329 25.088 91.8929 25.088C90.0689 25.088 88.7249 24.16 87.7969 22.336L84.8209 24C86.1329 26.848 88.5009 28.288 91.8929 28.288ZM102.419 28H106.227V19.648H106.323L113.459 28H118.483L110.355 18.656L118.067 10.912H112.883L106.259 17.632H106.227V1.952H102.419V28ZM121.11 7.136C122.102 8.128 123.638 8.128 124.63 7.136C125.622 6.144 125.622 4.608 124.63 3.616C123.638 2.592 122.102 2.592 121.11 3.616C120.118 4.608 120.118 6.144 121.11 7.136ZM124.79 10.912H120.982V28H124.79V10.912ZM129.216 25.376C129.216 26.88 130.464 28.16 132 28.16C133.536 28.16 134.784 26.912 134.784 25.376C134.784 23.808 133.568 22.56 132 22.56C130.464 22.56 129.216 23.808 129.216 25.376Z" fill="white"/>
</g>
<defs>
<clipPath id="clip0_609:677">
<rect width="137" height="34" fill="white"/>
</clipPath>
</defs>
</svg>
