<svg xmlns="http://www.w3.org/2000/svg" viewBox="0 0 96 136"><defs><style>.cls-1{fill:#fff;}.cls-2{fill:#6f55ff;}</style></defs><g id="Layer_2" data-name="Layer 2"><g id="Layer_2-2" data-name="Layer 2"><rect class="cls-1" width="96" height="136" rx="13.95"/><path class="cls-2" d="M15,52.75H73a1.25,1.25,0,0,0,0-2.5H15a1.25,1.25,0,0,0,0,2.5Z"/><path class="cls-2" d="M15,67.75H73a1.25,1.25,0,0,0,0-2.5H15a1.25,1.25,0,0,0,0,2.5Z"/><path class="cls-2" d="M15,37.75H51a1.25,1.25,0,0,0,0-2.5H15a1.25,1.25,0,0,0,0,2.5Z"/><path class="cls-2" d="M17.12,103.88l6.23,7.54,1.77-1.77-1.74-2.11a1.27,1.27,0,0,0-1.77,0,1.29,1.29,0,0,0,0,1.77l1.74,2.11a1.25,1.25,0,0,0,1.77,0,1.29,1.29,0,0,0,0-1.77l-6.23-7.54a1.25,1.25,0,0,0-1.77,0,1.3,1.3,0,0,0,0,1.77Z"/><path class="cls-2" d="M32.9,97.41l-9.4,12.76a1.26,1.26,0,0,0,.45,1.71,1.27,1.27,0,0,0,1.71-.44l2.63-3.57a1.26,1.26,0,0,0-.45-1.71,1.27,1.27,0,0,0-1.71.45l-2.63,3.56,2.16,1.27,9.4-12.76A1.26,1.26,0,0,0,34.61,97a1.28,1.28,0,0,0-1.71.44Z"/><path class="cls-2" d="M58.77,100.05l10.09,12.22,1.77-1.77-2.82-3.41a1.26,1.26,0,0,0-1.77,0,1.27,1.27,0,0,0,0,1.76l2.82,3.42a1.26,1.26,0,0,0,1.77,0,1.28,1.28,0,0,0,0-1.77L60.54,98.28a1.27,1.27,0,0,0-1.77,0,1.29,1.29,0,0,0,0,1.77Z"/><path class="cls-2" d="M69,98.28,58.86,110.5a1.29,1.29,0,0,0,0,1.77,1.26,1.26,0,0,0,1.77,0l2.82-3.42a1.27,1.27,0,0,0,0-1.76,1.25,1.25,0,0,0-1.77,0l-2.82,3.41,1.77,1.77,10.09-12.22a1.29,1.29,0,0,0,0-1.77,1.27,1.27,0,0,0-1.77,0Z"/></g></g></svg>