<svg xmlns="http://www.w3.org/2000/svg" xmlns:xlink="http://www.w3.org/1999/xlink" width="206.556" height="224.482" viewBox="0 0 206.556 224.482">
  <defs>
    <clipPath id="clip-path">
      <path id="Path_218" data-name="Path 218" d="M240.707,187.562a9.694,9.694,0,0,0-5.189,5.371l-21.046,53.392a9.758,9.758,0,0,0,5.5,12.656L313.624,295.9a2.048,2.048,0,1,0,1.5-3.811L221.474,255.17a5.661,5.661,0,0,1-3.191-7.342l21.046-53.392a5.661,5.661,0,0,1,7.343-3.19l86.48,34.088a5.661,5.661,0,0,1,3.191,7.343L321.7,269.831a2.048,2.048,0,0,0,3.811,1.5l14.646-37.156a9.769,9.769,0,0,0-5.5-12.656l-86.48-34.089a9.695,9.695,0,0,0-7.467.129" transform="translate(-213.787 -186.748)" fill="none"/>
    </clipPath>
    <linearGradient id="linear-gradient" x1="-0.161" y1="1.271" x2="-0.16" y2="1.271" gradientUnits="objectBoundingBox">
      <stop offset="0" stop-color="#ff9f4f"/>
      <stop offset="1" stop-color="#ff4e63"/>
    </linearGradient>
    <clipPath id="clip-path-2">
      <path id="Path_219" data-name="Path 219" d="M594.017,528.362a12.844,12.844,0,0,0,0,18.143l29.412,29.412a2.048,2.048,0,1,0,2.9-2.9l-29.412-29.412a8.733,8.733,0,0,1,12.35-12.35l23.083,23.083a2.048,2.048,0,1,0,2.9-2.9L612.16,528.362a12.844,12.844,0,0,0-18.143,0" transform="translate(-590.265 -524.61)" fill="none"/>
    </clipPath>
    <linearGradient id="linear-gradient-2" x1="-1.713" y1="1.669" x2="-1.71" y2="1.669" xlink:href="#linear-gradient"/>
    <clipPath id="clip-path-3">
      <path id="Path_220" data-name="Path 220" d="M459.093,591.229l-.873,10.654a12.479,12.479,0,0,0,8.232,12.755l28.769,10.268a17.62,17.62,0,0,0,15.518-1.857l5.49-3.6a2.048,2.048,0,0,0-2.249-3.424l-5.489,3.6a13.508,13.508,0,0,1-11.893,1.423l-28.769-10.268a8.377,8.377,0,0,1-5.526-8.562l.873-10.653a2.048,2.048,0,0,0-1.874-2.209c-.056,0-.112-.007-.167-.007a2.05,2.05,0,0,0-2.041,1.881" transform="translate(-458.179 -589.348)" fill="none"/>
    </clipPath>
    <linearGradient id="linear-gradient-3" x1="-1.397" y1="1.631" x2="-1.394" y2="1.631" xlink:href="#linear-gradient"/>
    <clipPath id="clip-path-4">
      <path id="Path_221" data-name="Path 221" d="M728.127,480.044a2.048,2.048,0,0,0,.991,2.722l14.645,6.83a26.829,26.829,0,0,1,15.3,21.15l8.235,69.159a2.049,2.049,0,0,0,2.031,1.806,2.074,2.074,0,0,0,.245-.014,2.048,2.048,0,0,0,1.792-2.276l-8.234-69.158a30.925,30.925,0,0,0-17.639-24.38l-14.645-6.83a2.047,2.047,0,0,0-2.722.991" transform="translate(-727.935 -478.861)" fill="none"/>
    </clipPath>
    <linearGradient id="linear-gradient-4" x1="-1.342" y1="1.122" x2="-1.34" y2="1.122" xlink:href="#linear-gradient"/>
    <clipPath id="clip-path-5">
      <path id="Path_222" data-name="Path 222" d="M518.426,704.382l10.065-4.3,1.146,3.728a9.48,9.48,0,0,1-.037,3.97,5.527,5.527,0,0,1-3.388,4.255c-4.851,1.967-8.14,3.234-9.261,3.567a9.425,9.425,0,0,1-3.824.576l-21.881-3.361a9.181,9.181,0,0,1-7.7-7.966l-.557-4.682,26.227,5.174a15.659,15.659,0,0,0,9.21-.964M474.041,674.3a2.048,2.048,0,0,0-2,2.091l.269,12.779a2.069,2.069,0,0,0,.032.321,13.17,13.17,0,0,0,6.337,9.085l.8,6.757a13.29,13.29,0,0,0,11.146,11.532l21.881,3.361a7.516,7.516,0,0,0,1.139.082,16.085,16.085,0,0,0,4.474-.78c1.279-.38,4.521-1.624,9.634-3.7a9.643,9.643,0,0,0,5.9-7.433,13.349,13.349,0,0,0-.1-5.792l-1.815-5.9a2.049,2.049,0,0,0-2.762-1.282l-12.159,5.19a11.571,11.571,0,0,1-6.808.713l-26.405-5.21a9.1,9.1,0,0,1-7.207-7.2l-.265-12.609A2.049,2.049,0,0,0,474.1,674.3h-.055" transform="translate(-472.036 -674.304)" fill="none"/>
    </clipPath>
    <linearGradient id="linear-gradient-5" x1="-1.264" y1="1.185" x2="-1.262" y2="1.185" xlink:href="#linear-gradient"/>
    <clipPath id="clip-path-6">
      <path id="Path_223" data-name="Path 223" d="M587.175,858.06a2.048,2.048,0,0,0-1.5,2.476,14.79,14.79,0,0,0,12.143,11.143l14.729,2.278a2.048,2.048,0,1,0,.626-4.048L598.44,867.63a10.706,10.706,0,0,1-8.79-8.066,2.045,2.045,0,0,0-2.475-1.5" transform="translate(-585.612 -858.001)" fill="none"/>
    </clipPath>
    <linearGradient id="linear-gradient-6" x1="-3.892" y1="1.318" x2="-3.886" y2="1.318" xlink:href="#linear-gradient"/>
    <clipPath id="clip-path-7">
      <path id="Path_224" data-name="Path 224" d="M714.514,721.345a2.048,2.048,0,0,0-1.6,2.412l2.115,10.5a2.048,2.048,0,0,0,4.016-.809l-2.116-10.5a2.045,2.045,0,0,0-2.413-1.6" transform="translate(-712.871 -721.304)" fill="none"/>
    </clipPath>
    <linearGradient id="linear-gradient-7" x1="-10.716" y1="4.179" x2="-10.7" y2="4.179" xlink:href="#linear-gradient"/>
    <clipPath id="clip-path-8">
      <path id="Path_225" data-name="Path 225" d="M422.584,303.026a4.832,4.832,0,1,1,1.773.337,4.834,4.834,0,0,1-1.773-.337m-1.823-12.741a8.9,8.9,0,1,0,3.592-.757,8.9,8.9,0,0,0-3.592.757" transform="translate(-415.389 -289.528)" fill="none"/>
    </clipPath>
    <linearGradient id="linear-gradient-8" x1="-3.453" y1="6.405" x2="-3.444" y2="6.405" xlink:href="#linear-gradient"/>
    <clipPath id="clip-path-9">
      <path id="Path_226" data-name="Path 226" d="M364.7,280.4a4.833,4.833,0,1,1,1.773.337,4.833,4.833,0,0,1-1.773-.337m-1.823-12.74a8.9,8.9,0,1,0,3.592-.757,8.9,8.9,0,0,0-3.592.757" transform="translate(-357.506 -266.898)" fill="none"/>
    </clipPath>
    <linearGradient id="linear-gradient-9" x1="-2.951" y1="6.602" x2="-2.942" y2="6.602" xlink:href="#linear-gradient"/>
    <clipPath id="clip-path-10">
      <path id="Path_227" data-name="Path 227" d="M314.644,404.49a2.048,2.048,0,0,0,1.162,2.654l34.612,13.532a2.048,2.048,0,0,0,1.492-3.816L317.3,403.328a2.047,2.047,0,0,0-2.654,1.162" transform="translate(-314.502 -403.187)" fill="none"/>
    </clipPath>
    <linearGradient id="linear-gradient-10" x1="-1.657" y1="3.753" x2="-1.652" y2="3.753" xlink:href="#linear-gradient"/>
    <clipPath id="clip-path-11">
      <path id="Path_228" data-name="Path 228" d="M295.437,453.618a2.048,2.048,0,0,0,1.162,2.654L331.21,469.8a2.048,2.048,0,1,0,1.492-3.815L298.09,452.456a2.047,2.047,0,0,0-2.654,1.162" transform="translate(-295.296 -452.315)" fill="none"/>
    </clipPath>
    <linearGradient id="linear-gradient-11" x1="-1.554" y1="3.471" x2="-1.549" y2="3.471" xlink:href="#linear-gradient"/>
    <clipPath id="clip-path-12">
      <path id="Path_229" data-name="Path 229" d="M484.783,527.643a2.049,2.049,0,0,0,1.162,2.654l23.493,9.185a2.048,2.048,0,1,0,1.492-3.815l-23.492-9.185a2.046,2.046,0,0,0-2.654,1.162" transform="translate(-484.642 -526.34)" fill="none"/>
    </clipPath>
    <linearGradient id="linear-gradient-12" x1="-3.542" y1="4.066" x2="-3.534" y2="4.066" xlink:href="#linear-gradient"/>
    <clipPath id="clip-path-13">
      <path id="Path_230" data-name="Path 230" d="M577.795,25.366a45.3,45.3,0,0,1-1.748-12.811,65.1,65.1,0,0,0,13.128-4.863c2.8-1.338,5.079-2.576,6.329-3.28,1.248.7,3.518,1.942,6.316,3.28A64.967,64.967,0,0,0,614.9,12.547a46.948,46.948,0,0,1-1.894,12.6,41.717,41.717,0,0,1-17.523,23.869,40.35,40.35,0,0,1-17.69-23.649M595.5,0a2.048,2.048,0,0,0-1.046.287c-.117.07-11.868,7.005-20.739,8.559a2.048,2.048,0,0,0-1.685,1.816,46.27,46.27,0,0,0,1.775,15.663A45.045,45.045,0,0,0,594.454,53.19a2.048,2.048,0,0,0,2.128-.017A46.442,46.442,0,0,0,616.94,26.292a47.932,47.932,0,0,0,2.011-15.582,2.048,2.048,0,0,0-1.689-1.863C608.405,7.3,596.669.359,596.552.289A2.048,2.048,0,0,0,595.5,0Z" transform="translate(-571.941 -0.001)" fill="none"/>
    </clipPath>
    <linearGradient id="linear-gradient-13" x1="-1.617" y1="3.252" x2="-1.614" y2="3.252" xlink:href="#linear-gradient"/>
    <clipPath id="clip-path-14">
      <path id="Path_231" data-name="Path 231" d="M668,6.6V53.5a2.115,2.115,0,0,0,4.227,0V6.6A2.115,2.115,0,0,0,668,6.6" transform="translate(-668 -4.55)" fill="none"/>
    </clipPath>
    <linearGradient id="linear-gradient-14" x1="-3.687" y1="5.236" x2="-3.68" y2="5.236" xlink:href="#linear-gradient"/>
    <clipPath id="clip-path-15">
      <path id="Path_232" data-name="Path 232" d="M828.809,139.471a2.115,2.115,0,0,0,0,4.227h3.277a2.115,2.115,0,0,0,0-4.227Z" transform="translate(-826.761 -139.471)" fill="none"/>
    </clipPath>
    <linearGradient id="linear-gradient-15" x1="-21.926" y1="24.488" x2="-21.899" y2="24.488" xlink:href="#linear-gradient"/>
    <clipPath id="clip-path-16">
      <path id="Path_233" data-name="Path 233" d="M884.049,139.471a2.115,2.115,0,0,0,0,4.227h3.687a2.115,2.115,0,0,0,0-4.227Z" transform="translate(-882.001 -139.471)" fill="none"/>
    </clipPath>
    <linearGradient id="linear-gradient-16" x1="-22.554" y1="23.722" x2="-22.528" y2="23.722" xlink:href="#linear-gradient"/>
    <clipPath id="clip-path-17">
      <path id="Path_234" data-name="Path 234" d="M862,163.112v3.277a2,2,0,1,0,4,0v-3.277a2,2,0,1,0-4,0" transform="translate(-862 -161.064)" fill="none"/>
    </clipPath>
    <linearGradient id="linear-gradient-17" x1="-24.324" y1="22.991" x2="-24.296" y2="22.991" xlink:href="#linear-gradient"/>
    <clipPath id="clip-path-18">
      <path id="Path_235" data-name="Path 235" d="M862,106.031v3.687a2,2,0,1,0,4,0v-3.687a2,2,0,1,0-4,0" transform="translate(-862 -103.982)" fill="none"/>
    </clipPath>
    <linearGradient id="linear-gradient-18" x1="-23.515" y1="23.627" x2="-23.487" y2="23.627" xlink:href="#linear-gradient"/>
    <clipPath id="clip-path-19">
      <path id="Path_236" data-name="Path 236" d="M2.048,721.472a2.114,2.114,0,0,0,0,4.227H5.325a2.114,2.114,0,0,0,0-4.227Z" transform="translate(0 -721.472)" fill="none"/>
    </clipPath>
    <linearGradient id="linear-gradient-19" x1="0.059" y1="8.255" x2="0.086" y2="8.255" xlink:href="#linear-gradient"/>
    <clipPath id="clip-path-20">
      <path id="Path_237" data-name="Path 237" d="M57.288,721.472a2.114,2.114,0,0,0,0,4.227h3.687a2.114,2.114,0,0,0,0-4.227Z" transform="translate(-55.24 -721.472)" fill="none"/>
    </clipPath>
    <linearGradient id="linear-gradient-20" x1="-1.364" y1="8.007" x2="-1.338" y2="8.007" xlink:href="#linear-gradient"/>
    <clipPath id="clip-path-21">
      <path id="Path_238" data-name="Path 238" d="M35,744.975v3.277a2,2,0,1,0,4,0v-3.277a2,2,0,1,0-4,0" transform="translate(-35 -742.927)" fill="none"/>
    </clipPath>
    <linearGradient id="linear-gradient-21" x1="-0.754" y1="7.25" x2="-0.726" y2="7.25" xlink:href="#linear-gradient"/>
    <clipPath id="clip-path-22">
      <path id="Path_239" data-name="Path 239" d="M35,687.893v3.687a2,2,0,1,0,4,0v-3.687a2,2,0,1,0-4,0" transform="translate(-35 -685.845)" fill="none"/>
    </clipPath>
    <linearGradient id="linear-gradient-22" x1="-0.713" y1="8.465" x2="-0.686" y2="8.465" xlink:href="#linear-gradient"/>
    <clipPath id="clip-path-23">
      <path id="Path_240" data-name="Path 240" d="M281.01,954.472a2.115,2.115,0,0,0,0,4.227h3.277a2.115,2.115,0,0,0,0-4.227Z" transform="translate(-278.962 -954.472)" fill="none"/>
    </clipPath>
    <linearGradient id="linear-gradient-23" x1="-7.359" y1="1.756" x2="-7.332" y2="1.756" xlink:href="#linear-gradient"/>
    <clipPath id="clip-path-24">
      <path id="Path_241" data-name="Path 241" d="M336.25,954.472a2.115,2.115,0,0,0,0,4.227h3.687a2.115,2.115,0,0,0,0-4.227Z" transform="translate(-334.202 -954.472)" fill="none"/>
    </clipPath>
    <linearGradient id="linear-gradient-24" x1="-8.514" y1="1.716" x2="-8.488" y2="1.716" xlink:href="#linear-gradient"/>
    <clipPath id="clip-path-25">
      <path id="Path_242" data-name="Path 242" d="M314,977.9v3.277a2,2,0,1,0,4,0V977.9a2,2,0,1,0-4,0" transform="translate(-314 -975.856)" fill="none"/>
    </clipPath>
    <linearGradient id="linear-gradient-25" x1="-8.706" y1="0.948" x2="-8.677" y2="0.948" xlink:href="#linear-gradient"/>
    <clipPath id="clip-path-26">
      <path id="Path_243" data-name="Path 243" d="M314,920.822v3.687a2,2,0,1,0,4,0v-3.687a2,2,0,1,0-4,0" transform="translate(-314 -918.774)" fill="none"/>
    </clipPath>
    <linearGradient id="linear-gradient-26" x1="-8.406" y1="2.395" x2="-8.378" y2="2.395" xlink:href="#linear-gradient"/>
    <clipPath id="clip-path-27">
      <path id="Path_244" data-name="Path 244" d="M396.387,790.577a1.395,1.395,0,1,1,1.395,1.395,1.4,1.4,0,0,1-1.395-1.395m-4.1,0a5.491,5.491,0,1,0,5.491-5.491,5.5,5.5,0,0,0-5.491,5.491" transform="translate(-392.29 -785.086)" fill="none"/>
    </clipPath>
    <linearGradient id="linear-gradient-27" x1="-5.496" y1="3.365" x2="-5.481" y2="3.365" xlink:href="#linear-gradient"/>
    <clipPath id="clip-path-28">
      <path id="Path_245" data-name="Path 245" d="M150.513,739.177V712.983a2.357,2.357,0,0,1,2.354-2.354H183.1a2.357,2.357,0,0,1,2.354,2.354v26.195a2.357,2.357,0,0,1-2.354,2.354H152.867a2.357,2.357,0,0,1-2.354-2.354m2.354-32.645a6.458,6.458,0,0,0-6.451,6.451v26.195a6.458,6.458,0,0,0,6.451,6.451H183.1a6.458,6.458,0,0,0,6.451-6.451V712.983a6.458,6.458,0,0,0-6.451-6.451Z" transform="translate(-146.416 -706.532)" fill="none"/>
    </clipPath>
    <linearGradient id="linear-gradient-28" x1="-0.431" y1="1.328" x2="-0.427" y2="1.328" xlink:href="#linear-gradient"/>
    <clipPath id="clip-path-29">
      <path id="Path_246" data-name="Path 246" d="M180.7,623.96v9.531a2.048,2.048,0,1,0,4.1,0V623.96a9.844,9.844,0,1,1,19.689,0v9.531a2.048,2.048,0,1,0,4.1,0V623.96a13.941,13.941,0,1,0-27.882,0" transform="translate(-180.697 -610.019)" fill="none"/>
    </clipPath>
    <linearGradient id="linear-gradient-29" x1="-0.934" y1="2.529" x2="-0.928" y2="2.529" xlink:href="#linear-gradient"/>
    <clipPath id="clip-path-30">
      <path id="Path_247" data-name="Path 247" d="M202.59,641.065v9.512a2.048,2.048,0,1,0,4.1,0v-9.512a4.973,4.973,0,1,1,9.947,0v9.512a2.048,2.048,0,1,0,4.1,0v-9.512a9.07,9.07,0,1,0-18.14,0" transform="translate(-202.59 -631.995)" fill="none"/>
    </clipPath>
    <linearGradient id="linear-gradient-30" x1="-1.494" y1="3.178" x2="-1.486" y2="3.178" xlink:href="#linear-gradient"/>
    <clipPath id="clip-path-31">
      <path id="Path_248" data-name="Path 248" d="M191.567,706.919a2.047,2.047,0,0,0-.967,2.729l4.161,8.739v16.786l-4.084,7.067a2.042,2.042,0,0,0,1.763,3.072,2.019,2.019,0,0,0,1.758-1.025l4.33-7.542a2.014,2.014,0,0,0,.238-1.023v-17.8a2.014,2.014,0,0,0-.161-.879l-4.311-9.157a2.044,2.044,0,0,0-2.726-.972" transform="translate(-190.4 -706.72)" fill="none"/>
    </clipPath>
    <linearGradient id="linear-gradient-31" x1="-0.977" y1="1.865" x2="-0.969" y2="1.865" xlink:href="#linear-gradient"/>
    <clipPath id="clip-path-32">
      <path id="Path_249" data-name="Path 249" d="M261.541,707.889l-4.356,9.157a2.04,2.04,0,0,0-.184.881v17.8a2.034,2.034,0,0,0,.26,1.024l4.34,7.542a2.046,2.046,0,0,0,1.776,1.024,1.984,1.984,0,0,0,1.007-.275,2.044,2.044,0,0,0,.734-2.8L261,735.174V718.39l4.2-8.739a2.032,2.032,0,1,0-3.661-1.762" transform="translate(-257 -706.721)" fill="none"/>
    </clipPath>
    <linearGradient id="linear-gradient-32" x1="-1.456" y1="1.864" x2="-1.449" y2="1.864" xlink:href="#linear-gradient"/>
    <clipPath id="clip-path-33">
      <path id="Path_250" data-name="Path 250" d="M150.275,763.471a2,2,0,1,0,0,4h13.519a2,2,0,1,0,0-4Z" transform="translate(-148.227 -763.471)" fill="none"/>
    </clipPath>
    <linearGradient id="linear-gradient-33" x1="-2.1" y1="4.158" x2="-2.086" y2="4.158" xlink:href="#linear-gradient"/>
    <clipPath id="clip-path-34">
      <path id="Path_251" data-name="Path 251" d="M150.275,788.471a2,2,0,1,0,0,4h13.519a2,2,0,1,0,0-4Z" transform="translate(-148.227 -788.471)" fill="none"/>
    </clipPath>
    <linearGradient id="linear-gradient-34" x1="-2.1" y1="3.771" x2="-2.086" y2="3.771" xlink:href="#linear-gradient"/>
    <clipPath id="clip-path-35">
      <path id="Path_252" data-name="Path 252" d="M150.275,813.471a2.115,2.115,0,0,0,0,4.227h13.519a2.115,2.115,0,0,0,0-4.227Z" transform="translate(-148.227 -813.471)" fill="none"/>
    </clipPath>
    <linearGradient id="linear-gradient-35" x1="-2.077" y1="3.343" x2="-2.063" y2="3.343" xlink:href="#linear-gradient"/>
    <clipPath id="clip-path-36">
      <path id="Path_253" data-name="Path 253" d="M260.756,763.471a2,2,0,1,0,0,4H274.48a2,2,0,1,0,0-4Z" transform="translate(-258.708 -763.471)" fill="none"/>
    </clipPath>
    <linearGradient id="linear-gradient-36" x1="-3.595" y1="4.125" x2="-3.582" y2="4.125" xlink:href="#linear-gradient"/>
    <clipPath id="clip-path-37">
      <path id="Path_254" data-name="Path 254" d="M260.756,788.471a2,2,0,1,0,0,4H274.48a2,2,0,1,0,0-4Z" transform="translate(-258.708 -788.471)" fill="none"/>
    </clipPath>
    <linearGradient id="linear-gradient-37" x1="-3.595" y1="3.742" x2="-3.582" y2="3.742" xlink:href="#linear-gradient"/>
    <clipPath id="clip-path-38">
      <path id="Path_255" data-name="Path 255" d="M260.756,813.471a2.115,2.115,0,0,0,0,4.227H274.48a2.115,2.115,0,0,0,0-4.227Z" transform="translate(-258.708 -813.471)" fill="none"/>
    </clipPath>
    <linearGradient id="linear-gradient-38" x1="-3.56" y1="3.318" x2="-3.546" y2="3.318" xlink:href="#linear-gradient"/>
    <clipPath id="clip-path-39">
      <path id="Path_256" data-name="Path 256" d="M136.507,92.9a94.615,94.615,0,0,0-50.3,123.876,2.048,2.048,0,1,0,3.773-1.6A90.391,90.391,0,0,1,173.3,89.565a2.048,2.048,0,1,0,0-4.1,93.925,93.925,0,0,0-36.79,7.428" transform="translate(-78.782 -85.468)" fill="none"/>
    </clipPath>
    <linearGradient id="linear-gradient-39" x1="0.087" y1="1.351" x2="0.088" y2="1.351" xlink:href="#linear-gradient"/>
    <clipPath id="clip-path-40">
      <path id="Path_257" data-name="Path 257" d="M376.109,901.065a2.049,2.049,0,0,0,1.381,2.546,94.618,94.618,0,0,0,26.918,3.889,96.024,96.024,0,0,0,9.735-.5,2.048,2.048,0,0,0-.417-4.076,91.815,91.815,0,0,1-9.317.474,90.516,90.516,0,0,1-25.753-3.72,2.046,2.046,0,0,0-2.546,1.381" transform="translate(-376.024 -899.599)" fill="none"/>
    </clipPath>
    <linearGradient id="linear-gradient-40" x1="-2.38" y1="1.138" x2="-2.374" y2="1.138" xlink:href="#linear-gradient"/>
    <clipPath id="clip-path-41">
      <path id="Path_258" data-name="Path 258" d="M785.638,204.287a2.048,2.048,0,0,0,.039,2.9c3.174,3.089,6.775,7.481,6.81,7.524a90.037,90.037,0,0,1,20.37,57.177,91.441,91.441,0,0,1-1.124,14.3,2.048,2.048,0,1,0,4.046.643,95.505,95.505,0,0,0,1.175-14.943,94.131,94.131,0,0,0-21.3-59.77c-.153-.187-3.782-4.614-7.125-7.867a2.048,2.048,0,0,0-2.9.04" transform="translate(-785.058 -203.667)" fill="none"/>
    </clipPath>
    <linearGradient id="linear-gradient-41" x1="-1.907" y1="2.096" x2="-1.904" y2="2.096" xlink:href="#linear-gradient"/>
  </defs>
  <g id="Group_345" data-name="Group 345" transform="translate(0 -0.001)">
    <g id="Group_264" data-name="Group 264" transform="translate(47.563 41.548)">
      <g id="Group_263" data-name="Group 263" clip-path="url(#clip-path)">
        <rect id="Rectangle_177" data-name="Rectangle 177" width="168.772" height="166.377" transform="translate(-54.077 45.102) rotate(-39.971)" fill="url(#linear-gradient)"/>
      </g>
    </g>
    <g id="Group_266" data-name="Group 266" transform="translate(131.322 116.716)">
      <g id="Group_265" data-name="Group 265" clip-path="url(#clip-path-2)">
        <rect id="Rectangle_178" data-name="Rectangle 178" width="69.387" height="69.992" transform="translate(-26.805 21.421) rotate(-39.971)" fill="url(#linear-gradient-2)"/>
      </g>
    </g>
    <g id="Group_268" data-name="Group 268" transform="translate(101.935 131.119)">
      <g id="Group_267" data-name="Group 267" clip-path="url(#clip-path-3)">
        <rect id="Rectangle_179" data-name="Rectangle 179" width="69.227" height="66.362" transform="translate(-18.422 15.091) rotate(-39.971)" fill="url(#linear-gradient-3)"/>
      </g>
    </g>
    <g id="Group_270" data-name="Group 270" transform="translate(161.95 106.538)">
      <g id="Group_269" data-name="Group 269" clip-path="url(#clip-path-4)">
        <rect id="Rectangle_180" data-name="Rectangle 180" width="99.679" height="106.993" transform="translate(-50.921 42.444) rotate(-39.971)" fill="url(#linear-gradient-4)"/>
      </g>
    </g>
    <g id="Group_272" data-name="Group 272" transform="translate(105.018 150.02)">
      <g id="Group_271" data-name="Group 271" clip-path="url(#clip-path-5)">
        <rect id="Rectangle_181" data-name="Rectangle 181" width="77.081" height="75.097" transform="translate(-22.674 18.986) rotate(-39.971)" fill="url(#linear-gradient-5)"/>
      </g>
    </g>
    <g id="Group_274" data-name="Group 274" transform="translate(130.287 190.888)">
      <g id="Group_273" data-name="Group 273" clip-path="url(#clip-path-6)">
        <rect id="Rectangle_182" data-name="Rectangle 182" width="32.989" height="31.294" transform="translate(-8.076 6.595) rotate(-39.971)" fill="url(#linear-gradient-6)"/>
      </g>
    </g>
    <g id="Group_276" data-name="Group 276" transform="translate(158.599 160.476)">
      <g id="Group_275" data-name="Group 275" clip-path="url(#clip-path-7)">
        <rect id="Rectangle_183" data-name="Rectangle 183" width="14.418" height="15.412" transform="translate(-7.369 6.023) rotate(-39.971)" fill="url(#linear-gradient-7)"/>
      </g>
    </g>
    <g id="Group_278" data-name="Group 278" transform="translate(92.416 64.415)">
      <g id="Group_277" data-name="Group 277" clip-path="url(#clip-path-8)">
        <rect id="Rectangle_184" data-name="Rectangle 184" width="25.65" height="25.587" transform="translate(-9.081 7.4) rotate(-39.971)" fill="url(#linear-gradient-8)"/>
      </g>
    </g>
    <g id="Group_280" data-name="Group 280" transform="translate(79.538 59.38)">
      <g id="Group_279" data-name="Group 279" clip-path="url(#clip-path-9)">
        <rect id="Rectangle_185" data-name="Rectangle 185" width="25.65" height="25.587" transform="translate(-9.081 7.401) rotate(-39.971)" fill="url(#linear-gradient-9)"/>
      </g>
    </g>
    <g id="Group_282" data-name="Group 282" transform="translate(69.97 89.702)">
      <g id="Group_281" data-name="Group 281" clip-path="url(#clip-path-10)">
        <rect id="Rectangle_186" data-name="Rectangle 186" width="41.405" height="38.725" transform="translate(-8.95 7.275) rotate(-39.971)" fill="url(#linear-gradient-10)"/>
      </g>
    </g>
    <g id="Group_284" data-name="Group 284" transform="translate(65.697 100.632)">
      <g id="Group_283" data-name="Group 283" clip-path="url(#clip-path-11)">
        <rect id="Rectangle_187" data-name="Rectangle 187" width="41.405" height="38.725" transform="translate(-8.95 7.275) rotate(-39.971)" fill="url(#linear-gradient-11)"/>
      </g>
    </g>
    <g id="Group_286" data-name="Group 286" transform="translate(107.823 117.101)">
      <g id="Group_285" data-name="Group 285" clip-path="url(#clip-path-12)">
        <rect id="Rectangle_188" data-name="Rectangle 188" width="30.092" height="28.251" transform="translate(-6.81 5.481) rotate(-39.971)" fill="url(#linear-gradient-12)"/>
      </g>
    </g>
    <g id="Group_288" data-name="Group 288" transform="translate(127.245 0.001)">
      <g id="Group_287" data-name="Group 287" transform="translate(0 0)" clip-path="url(#clip-path-13)">
        <rect id="Rectangle_189" data-name="Rectangle 189" width="71.192" height="71.863" transform="translate(-26.892 22.069) rotate(-39.971)" fill="url(#linear-gradient-13)"/>
      </g>
    </g>
    <g id="Group_290" data-name="Group 290" transform="translate(148.616 1.013)">
      <g id="Group_289" data-name="Group 289" clip-path="url(#clip-path-14)">
        <rect id="Rectangle_190" data-name="Rectangle 190" width="36.004" height="41.803" transform="translate(-25.109 21.048) rotate(-39.971)" fill="url(#linear-gradient-14)"/>
      </g>
    </g>
    <g id="Group_292" data-name="Group 292" transform="translate(183.937 31.03)">
      <g id="Group_291" data-name="Group 291" clip-path="url(#clip-path-15)">
        <rect id="Rectangle_191" data-name="Rectangle 191" width="8.366" height="7.976" transform="matrix(0.766, -0.642, 0.642, 0.766, -2.081, 1.744)" fill="url(#linear-gradient-15)"/>
      </g>
    </g>
    <g id="Group_294" data-name="Group 294" transform="translate(196.227 31.03)">
      <g id="Group_293" data-name="Group 293" clip-path="url(#clip-path-16)">
        <rect id="Rectangle_192" data-name="Rectangle 192" width="8.68" height="8.24" transform="translate(-2.081 1.744) rotate(-39.971)" fill="url(#linear-gradient-16)"/>
      </g>
    </g>
    <g id="Group_296" data-name="Group 296" transform="translate(191.777 35.834)">
      <g id="Group_295" data-name="Group 295" clip-path="url(#clip-path-17)">
        <rect id="Rectangle_193" data-name="Rectangle 193" width="7.806" height="8.224" transform="translate(-3.63 3.043) rotate(-39.971)" fill="url(#linear-gradient-17)"/>
      </g>
    </g>
    <g id="Group_298" data-name="Group 298" transform="translate(191.777 23.135)">
      <g id="Group_297" data-name="Group 297" clip-path="url(#clip-path-18)">
        <rect id="Rectangle_194" data-name="Rectangle 194" width="8.069" height="8.538" transform="translate(-3.832 3.212) rotate(-39.971)" fill="url(#linear-gradient-18)"/>
      </g>
    </g>
    <g id="Group_300" data-name="Group 300" transform="translate(0 160.513)">
      <g id="Group_299" data-name="Group 299" clip-path="url(#clip-path-19)">
        <rect id="Rectangle_195" data-name="Rectangle 195" width="8.366" height="7.976" transform="matrix(0.766, -0.642, 0.642, 0.766, -2.081, 1.744)" fill="url(#linear-gradient-19)"/>
      </g>
    </g>
    <g id="Group_302" data-name="Group 302" transform="translate(12.29 160.513)">
      <g id="Group_301" data-name="Group 301" clip-path="url(#clip-path-20)">
        <rect id="Rectangle_196" data-name="Rectangle 196" width="8.681" height="8.24" transform="translate(-2.081 1.744) rotate(-39.971)" fill="url(#linear-gradient-20)"/>
      </g>
    </g>
    <g id="Group_304" data-name="Group 304" transform="translate(7.787 165.287)">
      <g id="Group_303" data-name="Group 303" clip-path="url(#clip-path-21)">
        <rect id="Rectangle_197" data-name="Rectangle 197" width="7.806" height="8.224" transform="matrix(0.766, -0.642, 0.642, 0.766, -3.63, 3.043)" fill="url(#linear-gradient-21)"/>
      </g>
    </g>
    <g id="Group_306" data-name="Group 306" transform="translate(7.787 152.587)">
      <g id="Group_305" data-name="Group 305" clip-path="url(#clip-path-22)">
        <rect id="Rectangle_198" data-name="Rectangle 198" width="8.069" height="8.538" transform="matrix(0.766, -0.642, 0.642, 0.766, -3.832, 3.212)" fill="url(#linear-gradient-22)"/>
      </g>
    </g>
    <g id="Group_308" data-name="Group 308" transform="translate(62.063 212.351)">
      <g id="Group_307" data-name="Group 307" clip-path="url(#clip-path-23)">
        <rect id="Rectangle_199" data-name="Rectangle 199" width="8.367" height="7.977" transform="translate(-2.081 1.744) rotate(-39.971)" fill="url(#linear-gradient-23)"/>
      </g>
    </g>
    <g id="Group_310" data-name="Group 310" transform="translate(74.353 212.351)">
      <g id="Group_309" data-name="Group 309" clip-path="url(#clip-path-24)">
        <rect id="Rectangle_200" data-name="Rectangle 200" width="8.681" height="8.24" transform="translate(-2.081 1.744) rotate(-39.971)" fill="url(#linear-gradient-24)"/>
      </g>
    </g>
    <g id="Group_312" data-name="Group 312" transform="translate(69.859 217.109)">
      <g id="Group_311" data-name="Group 311" clip-path="url(#clip-path-25)">
        <rect id="Rectangle_201" data-name="Rectangle 201" width="7.806" height="8.224" transform="translate(-3.63 3.043) rotate(-39.971)" fill="url(#linear-gradient-25)"/>
      </g>
    </g>
    <g id="Group_314" data-name="Group 314" transform="translate(69.859 204.409)">
      <g id="Group_313" data-name="Group 313" clip-path="url(#clip-path-26)">
        <rect id="Rectangle_202" data-name="Rectangle 202" width="8.069" height="8.538" transform="translate(-3.832 3.212) rotate(-39.971)" fill="url(#linear-gradient-26)"/>
      </g>
    </g>
    <g id="Group_316" data-name="Group 316" transform="translate(87.276 174.666)">
      <g id="Group_315" data-name="Group 315" clip-path="url(#clip-path-27)">
        <rect id="Rectangle_203" data-name="Rectangle 203" width="15.472" height="15.472" transform="translate(-5.407 4.532) rotate(-39.971)" fill="url(#linear-gradient-27)"/>
      </g>
    </g>
    <g id="Group_318" data-name="Group 318" transform="translate(32.575 157.19)">
      <g id="Group_317" data-name="Group 317" clip-path="url(#clip-path-28)">
        <rect id="Rectangle_204" data-name="Rectangle 204" width="58.173" height="57.672" transform="translate(-19.247 16.134) rotate(-39.971)" fill="url(#linear-gradient-28)"/>
      </g>
    </g>
    <g id="Group_320" data-name="Group 320" transform="translate(40.201 135.717)">
      <g id="Group_319" data-name="Group 319" clip-path="url(#clip-path-29)">
        <rect id="Rectangle_205" data-name="Rectangle 205" width="37.762" height="37.469" transform="translate(-12.564 10.532) rotate(-39.971)" fill="url(#linear-gradient-29)"/>
      </g>
    </g>
    <g id="Group_322" data-name="Group 322" transform="translate(45.072 140.607)">
      <g id="Group_321" data-name="Group 321" clip-path="url(#clip-path-30)">
        <rect id="Rectangle_206" data-name="Rectangle 206" width="27.155" height="27.464" transform="translate(-10.157 8.514) rotate(-39.971)" fill="url(#linear-gradient-30)"/>
      </g>
    </g>
    <g id="Group_324" data-name="Group 324" transform="translate(42.36 157.231)">
      <g id="Group_323" data-name="Group 323" clip-path="url(#clip-path-31)">
        <rect id="Rectangle_207" data-name="Rectangle 207" width="31.424" height="35.135" transform="translate(-19.288 15.926) rotate(-39.971)" fill="url(#linear-gradient-31)"/>
      </g>
    </g>
    <g id="Group_326" data-name="Group 326" transform="translate(57.177 157.232)">
      <g id="Group_325" data-name="Group 325" clip-path="url(#clip-path-32)">
        <rect id="Rectangle_208" data-name="Rectangle 208" width="31.45" height="35.158" transform="translate(-19 15.926) rotate(-39.971)" fill="url(#linear-gradient-32)"/>
      </g>
    </g>
    <g id="Group_328" data-name="Group 328" transform="translate(32.977 169.857)">
      <g id="Group_327" data-name="Group 327" clip-path="url(#clip-path-33)">
        <rect id="Rectangle_209" data-name="Rectangle 209" width="16.073" height="14.385" transform="translate(-1.972 1.653) rotate(-39.971)" fill="url(#linear-gradient-33)"/>
      </g>
    </g>
    <g id="Group_330" data-name="Group 330" transform="translate(32.977 175.419)">
      <g id="Group_329" data-name="Group 329" clip-path="url(#clip-path-34)">
        <rect id="Rectangle_210" data-name="Rectangle 210" width="16.073" height="14.385" transform="translate(-1.972 1.653) rotate(-39.971)" fill="url(#linear-gradient-34)"/>
      </g>
    </g>
    <g id="Group_332" data-name="Group 332" transform="translate(32.977 180.981)">
      <g id="Group_331" data-name="Group 331" clip-path="url(#clip-path-35)">
        <rect id="Rectangle_211" data-name="Rectangle 211" width="16.215" height="14.556" transform="translate(-2.081 1.744) rotate(-39.971)" fill="url(#linear-gradient-35)"/>
      </g>
    </g>
    <g id="Group_334" data-name="Group 334" transform="translate(57.557 169.857)">
      <g id="Group_333" data-name="Group 333" clip-path="url(#clip-path-36)">
        <rect id="Rectangle_212" data-name="Rectangle 212" width="16.229" height="14.517" transform="translate(-1.972 1.653) rotate(-39.971)" fill="url(#linear-gradient-36)"/>
      </g>
    </g>
    <g id="Group_336" data-name="Group 336" transform="translate(57.557 175.419)">
      <g id="Group_335" data-name="Group 335" clip-path="url(#clip-path-37)">
        <rect id="Rectangle_213" data-name="Rectangle 213" width="16.229" height="14.517" transform="translate(-1.972 1.653) rotate(-39.971)" fill="url(#linear-gradient-37)"/>
      </g>
    </g>
    <g id="Group_338" data-name="Group 338" transform="translate(57.557 180.981)">
      <g id="Group_337" data-name="Group 337" clip-path="url(#clip-path-38)">
        <rect id="Rectangle_214" data-name="Rectangle 214" width="16.372" height="14.687" transform="translate(-2.081 1.744) rotate(-39.971)" fill="url(#linear-gradient-38)"/>
      </g>
    </g>
    <g id="Group_340" data-name="Group 340" transform="translate(17.527 19.016)">
      <g id="Group_339" data-name="Group 339" clip-path="url(#clip-path-39)">
        <rect id="Rectangle_215" data-name="Rectangle 215" width="159.156" height="163.618" transform="translate(-65.259 54.702) rotate(-39.971)" fill="url(#linear-gradient-39)"/>
      </g>
    </g>
    <g id="Group_342" data-name="Group 342" transform="translate(83.658 200.143)">
      <g id="Group_341" data-name="Group 341" clip-path="url(#clip-path-40)">
        <rect id="Rectangle_216" data-name="Rectangle 216" width="35.961" height="31.944" transform="translate(-4.127 3.261) rotate(-39.971)" fill="url(#linear-gradient-40)"/>
      </g>
    </g>
    <g id="Group_344" data-name="Group 344" transform="translate(174.659 45.312)">
      <g id="Group_343" data-name="Group 343" clip-path="url(#clip-path-41)">
        <rect id="Rectangle_217" data-name="Rectangle 217" width="79.137" height="85.68" transform="translate(-42 35.031) rotate(-39.971)" fill="url(#linear-gradient-41)"/>
      </g>
    </g>
  </g>
</svg>
