<svg xmlns="http://www.w3.org/2000/svg" xmlns:xlink="http://www.w3.org/1999/xlink" width="219.134" height="224.482" viewBox="0 0 219.134 224.482">
  <defs>
    <clipPath id="clip-path">
      <path id="Path_174" data-name="Path 174" d="M430.8,104.13l-18.3,37.5a2.231,2.231,0,0,0,4.011,1.957l18.3-37.513a5.664,5.664,0,0,1,7.559-2.649l40.647,19.551a5.67,5.67,0,0,1,2.65,7.558l-11.087,23.021a2.231,2.231,0,1,0,4.02,1.936L489.69,132.47a10.127,10.127,0,0,0-4.737-13.515L444.306,99.4A10.127,10.127,0,0,0,430.8,104.13" transform="translate(-412.273 -98.404)" fill="none"/>
    </clipPath>
    <linearGradient id="linear-gradient" x1="-0.919" y1="2.298" x2="-0.917" y2="2.298" gradientUnits="objectBoundingBox">
      <stop offset="0" stop-color="#ff9f4f"/>
      <stop offset="1" stop-color="#ff4e63"/>
    </linearGradient>
    <clipPath id="clip-path-2">
      <path id="Path_175" data-name="Path 175" d="M438,535.406l-9.677,20.049a5.664,5.664,0,0,1-7.559,2.649l-20.4-9.814a2.231,2.231,0,1,0-1.934,4.021l20.4,9.814a10.129,10.129,0,0,0,13.514-4.734l9.675-20.046a2.231,2.231,0,1,0-4.019-1.94" transform="translate(-397.163 -534.144)" fill="none"/>
    </clipPath>
    <linearGradient id="linear-gradient-2" x1="-1.714" y1="2.062" x2="-1.71" y2="2.062" xlink:href="#linear-gradient"/>
    <clipPath id="clip-path-3">
      <path id="Path_176" data-name="Path 176" d="M416.4,523.2a2.231,2.231,0,0,0,1.044,2.978L447.207,540.5a2.231,2.231,0,0,0,1.934-4.022l-29.759-14.313A2.23,2.23,0,0,0,416.4,523.2" transform="translate(-416.183 -521.94)" fill="none"/>
    </clipPath>
    <linearGradient id="linear-gradient-3" x1="-2.542" y1="2.912" x2="-2.535" y2="2.912" xlink:href="#linear-gradient"/>
    <clipPath id="clip-path-4">
      <path id="Path_177" data-name="Path 177" d="M491.158,128.118A2.231,2.231,0,0,0,492.2,131.1l52.681,25.339a2.231,2.231,0,0,0,1.934-4.022l-52.681-25.339a2.23,2.23,0,0,0-2.978,1.044" transform="translate(-490.937 -126.853)" fill="none"/>
    </clipPath>
    <linearGradient id="linear-gradient-4" x1="-1.825" y1="3.491" x2="-1.821" y2="3.491" xlink:href="#linear-gradient"/>
    <clipPath id="clip-path-5">
      <path id="Path_178" data-name="Path 178" d="M411.568,556.6a2.231,2.231,0,0,0,1.044,2.978l5.63,2.708a2.231,2.231,0,1,0,1.934-4.021l-5.63-2.708a2.229,2.229,0,0,0-2.978,1.044" transform="translate(-411.347 -555.335)" fill="none"/>
    </clipPath>
    <linearGradient id="linear-gradient-5" x1="-7.671" y1="7.473" x2="-7.652" y2="7.473" xlink:href="#linear-gradient"/>
    <clipPath id="clip-path-6">
      <path id="Path_179" data-name="Path 179" d="M229.235,259.291,195.43,282.733a20.111,20.111,0,0,0-8.544,15.912l-6.368,35.478L164.64,367.134a2.231,2.231,0,1,0,4.021,1.934l16.01-33.286a2.222,2.222,0,0,0,.185-.573l6.452-35.949a2.214,2.214,0,0,0,.035-.358,15.631,15.631,0,0,1,6.637-12.51l33.8-23.44a5.789,5.789,0,0,1,6.775,9.388l-25.907,19.35a2.233,2.233,0,0,0-.217,3.39,47.287,47.287,0,0,1,9.859,15.586c4.643,12.321,2.592,24.216-6.1,35.355a2.231,2.231,0,0,0,3.519,2.744c12.143-15.57,10.341-30.255,6.692-39.833a52.2,52.2,0,0,0-9.1-15.151l23.921-17.867a10.252,10.252,0,0,0-4.191-18.279,10.39,10.39,0,0,0-1.972-.19,10.152,10.152,0,0,0-5.83,1.843" transform="translate(-164.419 -257.448)" fill="none"/>
    </clipPath>
    <linearGradient id="linear-gradient-6" x1="-0.096" y1="1.256" x2="-0.095" y2="1.256" xlink:href="#linear-gradient"/>
    <clipPath id="clip-path-7">
      <path id="Path_180" data-name="Path 180" d="M606.032,334.3a5.1,5.1,0,0,1,3.543-6.27l14.793-4.111a5.117,5.117,0,0,1,1.371-.188,5.094,5.094,0,0,1,1.356,10L612.3,337.843a5.091,5.091,0,0,1-6.27-3.543m17.141-14.68L608.38,323.73a9.566,9.566,0,0,0-6.648,11.765h0a9.55,9.55,0,0,0,11.764,6.648l14.793-4.111a9.555,9.555,0,1,0-5.117-18.412" transform="translate(-601.383 -319.266)" fill="none"/>
    </clipPath>
    <linearGradient id="linear-gradient-7" x1="-3.326" y1="3.814" x2="-3.32" y2="3.814" xlink:href="#linear-gradient"/>
    <clipPath id="clip-path-8">
      <path id="Path_181" data-name="Path 181" d="M596.037,395.348l14.793-4.111a5.093,5.093,0,1,1,2.727,9.813l-14.793,4.111a5.1,5.1,0,0,1-6.27-3.543h0a5.1,5.1,0,0,1,3.543-6.27m13.6-8.41-14.793,4.111a9.555,9.555,0,1,0,5.117,18.412l14.793-4.111a9.555,9.555,0,1,0-5.117-18.412" transform="translate(-587.845 -386.588)" fill="none"/>
    </clipPath>
    <linearGradient id="linear-gradient-8" x1="-3.29" y1="3.448" x2="-3.284" y2="3.448" xlink:href="#linear-gradient"/>
    <clipPath id="clip-path-9">
      <path id="Path_182" data-name="Path 182" d="M561.045,468.069l14.793-4.111a5.092,5.092,0,0,1,2.727,9.813l-14.793,4.111a5.1,5.1,0,0,1-6.27-3.543h0a5.1,5.1,0,0,1,3.543-6.27m13.6-8.41-14.793,4.111a9.555,9.555,0,1,0,5.117,18.412l14.793-4.111a9.555,9.555,0,1,0-5.117-18.412" transform="translate(-552.849 -459.305)" fill="none"/>
    </clipPath>
    <linearGradient id="linear-gradient-9" x1="-3.105" y1="3.011" x2="-3.1" y2="3.011" xlink:href="#linear-gradient"/>
    <clipPath id="clip-path-10">
      <path id="Path_183" data-name="Path 183" d="M358.209,632.71a23,23,0,0,1-5.511,5.344,27.817,27.817,0,0,1-17.084,5,2.234,2.234,0,0,0-2.061,1.264l-15,31.191a2.231,2.231,0,1,0,4.021,1.934l14.392-29.922c16.927-.263,24.655-11.873,24.985-12.38a2.231,2.231,0,0,0-3.74-2.435" transform="translate(-318.33 -631.704)" fill="none"/>
    </clipPath>
    <linearGradient id="linear-gradient-10" x1="-1.042" y1="1.238" x2="-1.038" y2="1.238" xlink:href="#linear-gradient"/>
    <clipPath id="clip-path-11">
      <path id="Path_184" data-name="Path 184" d="M222.546,77.473a2.231,2.231,0,1,0,2.322,3.811,98.774,98.774,0,0,1,51.4-14.381,2.231,2.231,0,1,0,0-4.463,103.233,103.233,0,0,0-53.727,15.033" transform="translate(-221.475 -62.44)" fill="none"/>
    </clipPath>
    <linearGradient id="linear-gradient-11" x1="-0.955" y1="4.392" x2="-0.951" y2="4.392" xlink:href="#linear-gradient"/>
    <clipPath id="clip-path-12">
      <path id="Path_185" data-name="Path 185" d="M26.112,351.64A104.106,104.106,0,0,0,23.777,407.5a2.231,2.231,0,1,0,4.344-1.021,99.648,99.648,0,0,1,2.234-53.454,2.231,2.231,0,1,0-4.242-1.384" transform="translate(-21.034 -350.1)" fill="none"/>
    </clipPath>
    <linearGradient id="linear-gradient-12" x1="0.28" y1="2.626" x2="0.285" y2="2.626" xlink:href="#linear-gradient"/>
    <clipPath id="clip-path-13">
      <path id="Path_186" data-name="Path 186" d="M107.36,733.013a2.231,2.231,0,0,0-.418,3.128,104.381,104.381,0,0,0,35.627,29.622,102.34,102.34,0,0,0,46.608,11.073,104.357,104.357,0,0,0,18.661-1.68,2.231,2.231,0,0,0-.8-4.39,99.882,99.882,0,0,1-17.861,1.607,97.916,97.916,0,0,1-44.594-10.593,99.892,99.892,0,0,1-34.095-28.349,2.232,2.232,0,0,0-3.128-.419" transform="translate(-106.483 -732.555)" fill="none"/>
    </clipPath>
    <linearGradient id="linear-gradient-13" x1="-0.216" y1="0.746" x2="-0.213" y2="0.746" xlink:href="#linear-gradient"/>
    <clipPath id="clip-path-14">
      <path id="Path_187" data-name="Path 187" d="M839.769,564.753c-.536,3.067-1.226,6.142-2.05,9.14a2.231,2.231,0,1,0,4.3,1.183c.862-3.134,1.583-6.349,2.143-9.555a2.232,2.232,0,0,0-1.814-2.582,2.262,2.262,0,0,0-.387-.034,2.232,2.232,0,0,0-2.195,1.848" transform="translate(-837.638 -562.905)" fill="none"/>
    </clipPath>
    <linearGradient id="linear-gradient-14" x1="-14.055" y1="5.868" x2="-14.038" y2="5.868" xlink:href="#linear-gradient"/>
    <clipPath id="clip-path-15">
      <path id="Path_188" data-name="Path 188" d="M776.458,234.652a2.231,2.231,0,0,0-.49,3.117,97.923,97.923,0,0,1,16.75,37.5,2.231,2.231,0,1,0,4.365-.929,102.353,102.353,0,0,0-17.507-39.2,2.23,2.23,0,0,0-3.117-.49" transform="translate(-775.54 -234.224)" fill="none"/>
    </clipPath>
    <linearGradient id="linear-gradient-15" x1="-3.988" y1="3.607" x2="-3.983" y2="3.607" xlink:href="#linear-gradient"/>
    <clipPath id="clip-path-16">
      <path id="Path_189" data-name="Path 189" d="M546.041,737.016h76.154v5.791H546.041Zm-2.231-4.462a2.231,2.231,0,0,0-2.231,2.231v10.254a2.231,2.231,0,0,0,2.231,2.231h80.616a2.231,2.231,0,0,0,2.231-2.231V734.785a2.231,2.231,0,0,0-2.231-2.231Z" transform="translate(-541.578 -732.554)" fill="none"/>
    </clipPath>
    <linearGradient id="linear-gradient-16" x1="-1.821" y1="1.101" x2="-1.818" y2="1.101" xlink:href="#linear-gradient"/>
    <clipPath id="clip-path-17">
      <path id="Path_190" data-name="Path 190" d="M632.43,778.545,625.6,808.381h-53l-6.834-29.836a2.231,2.231,0,1,0-4.35,1l7.23,31.57a2.231,2.231,0,0,0,2.175,1.733h56.559a2.231,2.231,0,0,0,2.175-1.733l7.231-31.57a2.231,2.231,0,1,0-4.35-1" transform="translate(-561.354 -776.811)" fill="none"/>
    </clipPath>
    <linearGradient id="linear-gradient-17" x1="-1.631" y1="0.737" x2="-1.628" y2="0.737" xlink:href="#linear-gradient"/>
    <clipPath id="clip-path-18">
      <path id="Path_191" data-name="Path 191" d="M707.711,811.6v16.065a2.184,2.184,0,1,0,4.367,0V811.6a2.184,2.184,0,1,0-4.367,0" transform="translate(-707.711 -809.371)" fill="none"/>
    </clipPath>
    <linearGradient id="linear-gradient-18" x1="-10.071" y1="1.461" x2="-10.056" y2="1.461" xlink:href="#linear-gradient"/>
    <clipPath id="clip-path-19">
      <path id="Path_192" data-name="Path 192" d="M751.05,811.351l-2.037,16.1a2.232,2.232,0,0,0,1.933,2.494,2.269,2.269,0,0,0,.283.018,2.232,2.232,0,0,0,2.211-1.951l2.037-16.1a2.231,2.231,0,0,0-4.427-.56" transform="translate(-748.994 -809.4)" fill="none"/>
    </clipPath>
    <linearGradient id="linear-gradient-19" x1="-9.594" y1="1.385" x2="-9.581" y2="1.385" xlink:href="#linear-gradient"/>
    <clipPath id="clip-path-20">
      <path id="Path_193" data-name="Path 193" d="M794.29,811.082l-4.075,16.1a2.231,2.231,0,1,0,4.326,1.1l4.075-16.1a2.231,2.231,0,1,0-4.326-1.1" transform="translate(-790.146 -809.398)" fill="none"/>
    </clipPath>
    <linearGradient id="linear-gradient-20" x1="-9.277" y1="1.327" x2="-9.265" y2="1.327" xlink:href="#linear-gradient"/>
    <clipPath id="clip-path-21">
      <path id="Path_194" data-name="Path 194" d="M661.082,809.417a2.231,2.231,0,0,0-1.934,2.494l2.038,16.1a2.231,2.231,0,0,0,2.211,1.951,2.294,2.294,0,0,0,.283-.018,2.231,2.231,0,0,0,1.933-2.494l-2.038-16.1a2.231,2.231,0,0,0-2.211-1.951,2.206,2.206,0,0,0-.282.018" transform="translate(-659.13 -809.399)" fill="none"/>
    </clipPath>
    <linearGradient id="linear-gradient-21" x1="-8.404" y1="1.385" x2="-8.391" y2="1.385" xlink:href="#linear-gradient"/>
    <clipPath id="clip-path-22">
      <path id="Path_195" data-name="Path 195" d="M611.263,809.467a2.231,2.231,0,0,0-1.615,2.711l4.075,16.1a2.231,2.231,0,1,0,4.326-1.1l-4.075-16.1a2.229,2.229,0,0,0-2.711-1.615" transform="translate(-609.578 -809.398)" fill="none"/>
    </clipPath>
    <linearGradient id="linear-gradient-22" x1="-7.091" y1="1.327" x2="-7.079" y2="1.327" xlink:href="#linear-gradient"/>
    <clipPath id="clip-path-23">
      <path id="Path_196" data-name="Path 196" d="M570.756,664.177l-12.782,16.611a2.231,2.231,0,1,0,3.536,2.721l11.461-14.895,6.782,4.9a2.231,2.231,0,0,0,2.614-3.617l-8.537-6.171a2.23,2.23,0,0,0-3.075.448" transform="translate(-557.511 -663.306)" fill="none"/>
    </clipPath>
    <linearGradient id="linear-gradient-23" x1="-3.889" y1="2.105" x2="-3.882" y2="2.105" xlink:href="#linear-gradient"/>
    <clipPath id="clip-path-24">
      <path id="Path_197" data-name="Path 197" d="M790.923,660.681l-12.8,1.893a2.231,2.231,0,1,0,.653,4.414l10.675-1.578,2.766,14.753a2.231,2.231,0,0,0,4.386-.822l-3.161-16.864a2.229,2.229,0,0,0-2.519-1.8" transform="translate(-776.22 -660.657)" fill="none"/>
    </clipPath>
    <linearGradient id="linear-gradient-24" x1="-6.208" y1="2.305" x2="-6.2" y2="2.305" xlink:href="#linear-gradient"/>
    <clipPath id="clip-path-25">
      <path id="Path_198" data-name="Path 198" d="M646.581,651.005a18.779,18.779,0,0,0,1.786,8.038,2.231,2.231,0,0,0,4.04-1.9,14.48,14.48,0,1,1,26.46-.507,2.231,2.231,0,0,0,4.11,1.738,18.944,18.944,0,1,0-36.4-7.374" transform="translate(-646.581 -632.063)" fill="none"/>
    </clipPath>
    <linearGradient id="linear-gradient-25" x1="-3.224" y1="1.742" x2="-3.219" y2="1.742" xlink:href="#linear-gradient"/>
    <clipPath id="clip-path-26">
      <path id="Path_199" data-name="Path 199" d="M34.841,119.459l35.421,16.42L64.284,148.9ZM27.16,115.9l2.215,1.027L23.9,117.6Zm-1.089-4.465-15.149,7.9a2.231,2.231,0,0,0,1.3,4.193L30.37,121.3,63.4,154.326A2.231,2.231,0,0,0,67,153.679l8.243-17.958a2.231,2.231,0,0,0-1.089-2.955L28.04,111.388a2.229,2.229,0,0,0-1.969.046" transform="translate(-9.721 -111.181)" fill="none"/>
    </clipPath>
    <linearGradient id="linear-gradient-26" x1="0.053" y1="2.811" x2="0.056" y2="2.811" xlink:href="#linear-gradient"/>
    <clipPath id="clip-path-27">
      <path id="Path_200" data-name="Path 200" d="M4.577,157.021l1.977-16.35L23.01,138.6l33.844,33.844L38.426,190.871Zm18.959-22.988L4.268,136.462a2.231,2.231,0,0,0-1.936,1.946L.016,157.564a2.231,2.231,0,0,0,.637,1.845L36.848,195.6a2.231,2.231,0,0,0,3.156,0L61.588,174.02a2.231,2.231,0,0,0,0-3.156L25.393,134.67a2.232,2.232,0,0,0-1.857-.636" transform="translate(0 -134.016)" fill="none"/>
    </clipPath>
    <linearGradient id="linear-gradient-27" x1="0.145" y1="2.332" x2="0.148" y2="2.332" xlink:href="#linear-gradient"/>
    <clipPath id="clip-path-28">
      <path id="Path_201" data-name="Path 201" d="M38.448,172.453a2.814,2.814,0,1,0,1.99-.824,2.813,2.813,0,0,0-1.99.824" transform="translate(-37.624 -171.629)" fill="none"/>
    </clipPath>
    <linearGradient id="linear-gradient-28" x1="-0.901" y1="21.699" x2="-0.873" y2="21.699" xlink:href="#linear-gradient"/>
    <clipPath id="clip-path-29">
      <path id="Path_202" data-name="Path 202" d="M33.068,167.9a.584.584,0,0,1,0-.824.583.583,0,0,1,.824,0,.583.583,0,0,1,0,.824.583.583,0,0,1-.824,0m-3.155-3.979a5.045,5.045,0,1,0,7.135,0h0a5.051,5.051,0,0,0-7.135,0" transform="translate(-28.437 -162.441)" fill="none"/>
    </clipPath>
    <linearGradient id="linear-gradient-29" x1="-0.298" y1="12.641" x2="-0.282" y2="12.641" xlink:href="#linear-gradient"/>
    <clipPath id="clip-path-30">
      <path id="Path_203" data-name="Path 203" d="M3.874,112.935a7.356,7.356,0,0,0,0,10.391l6.912,6.912a2.231,2.231,0,0,0,3.156-3.155L7.03,120.171a2.889,2.889,0,0,1,0-4.081,2.231,2.231,0,1,0-3.156-3.156" transform="translate(-1.726 -112.281)" fill="none"/>
    </clipPath>
    <linearGradient id="linear-gradient-30" x1="0.206" y1="8.622" x2="0.217" y2="8.622" xlink:href="#linear-gradient"/>
    <clipPath id="clip-path-31">
      <path id="Path_204" data-name="Path 204" d="M31.776,652.625a2.306,2.306,0,0,0,0,4.609h3.57a2.306,2.306,0,0,0,0-4.609Z" transform="translate(-29.545 -652.625)" fill="none"/>
    </clipPath>
    <linearGradient id="linear-gradient-31" x1="-0.725" y1="7.864" x2="-0.699" y2="7.864" xlink:href="#linear-gradient"/>
    <clipPath id="clip-path-32">
      <path id="Path_205" data-name="Path 205" d="M86.961,652.625a2.306,2.306,0,0,0,0,4.609h4.016a2.306,2.306,0,0,0,0-4.609Z" transform="translate(-84.73 -652.625)" fill="none"/>
    </clipPath>
    <linearGradient id="linear-gradient-32" x1="-2.118" y1="7.63" x2="-2.092" y2="7.63" xlink:href="#linear-gradient"/>
    <clipPath id="clip-path-33">
      <path id="Path_206" data-name="Path 206" d="M64.711,676.4v3.57a2.184,2.184,0,1,0,4.367,0V676.4a2.184,2.184,0,1,0-4.367,0" transform="translate(-64.711 -674.169)" fill="none"/>
    </clipPath>
    <linearGradient id="linear-gradient-33" x1="-1.608" y1="6.843" x2="-1.579" y2="6.843" xlink:href="#linear-gradient"/>
    <clipPath id="clip-path-34">
      <path id="Path_207" data-name="Path 207" d="M64.711,619.376v4.016a2.184,2.184,0,1,0,4.367,0v-4.016a2.184,2.184,0,1,0-4.367,0" transform="translate(-64.711 -617.145)" fill="none"/>
    </clipPath>
    <linearGradient id="linear-gradient-34" x1="-1.539" y1="8.07" x2="-1.512" y2="8.07" xlink:href="#linear-gradient"/>
    <clipPath id="clip-path-35">
      <path id="Path_208" data-name="Path 208" d="M815.4,475.626a2.184,2.184,0,1,0,0,4.367h3.57a2.184,2.184,0,1,0,0-4.367Z" transform="translate(-813.164 -475.626)" fill="none"/>
    </clipPath>
    <linearGradient id="linear-gradient-35" x1="-21.933" y1="13.102" x2="-21.906" y2="13.102" xlink:href="#linear-gradient"/>
    <clipPath id="clip-path-36">
      <path id="Path_209" data-name="Path 209" d="M870.579,475.626a2.184,2.184,0,1,0,0,4.367H874.6a2.184,2.184,0,1,0,0-4.367Z" transform="translate(-868.348 -475.626)" fill="none"/>
    </clipPath>
    <linearGradient id="linear-gradient-36" x1="-22.566" y1="12.693" x2="-22.54" y2="12.693" xlink:href="#linear-gradient"/>
    <clipPath id="clip-path-37">
      <path id="Path_210" data-name="Path 210" d="M847.711,498.89v3.57a2.306,2.306,0,0,0,4.609,0v-3.57a2.306,2.306,0,0,0-4.609,0" transform="translate(-847.711 -496.659)" fill="none"/>
    </clipPath>
    <linearGradient id="linear-gradient-37" x1="-23.482" y1="11.454" x2="-23.454" y2="11.454" xlink:href="#linear-gradient"/>
    <clipPath id="clip-path-38">
      <path id="Path_211" data-name="Path 211" d="M847.711,441.867v4.016a2.306,2.306,0,0,0,4.609,0v-4.016a2.306,2.306,0,0,0-4.609,0" transform="translate(-847.711 -439.636)" fill="none"/>
    </clipPath>
    <linearGradient id="linear-gradient-38" x1="-22.721" y1="12.493" x2="-22.694" y2="12.493" xlink:href="#linear-gradient"/>
    <clipPath id="clip-path-39">
      <path id="Path_212" data-name="Path 212" d="M669.156,35.626a2.306,2.306,0,0,0,0,4.609h3.57a2.306,2.306,0,0,0,0-4.609Z" transform="translate(-666.925 -35.626)" fill="none"/>
    </clipPath>
    <linearGradient id="linear-gradient-39" x1="-17.667" y1="25.127" x2="-17.64" y2="25.127" xlink:href="#linear-gradient"/>
    <clipPath id="clip-path-40">
      <path id="Path_213" data-name="Path 213" d="M724.341,35.626a2.306,2.306,0,0,0,0,4.609h4.016a2.306,2.306,0,0,0,0-4.609Z" transform="translate(-722.11 -35.626)" fill="none"/>
    </clipPath>
    <linearGradient id="linear-gradient-40" x1="-18.444" y1="24.345" x2="-18.419" y2="24.345" xlink:href="#linear-gradient"/>
    <clipPath id="clip-path-41">
      <path id="Path_214" data-name="Path 214" d="M701.711,59.255v3.57a2.306,2.306,0,0,0,4.609,0v-3.57a2.306,2.306,0,0,0-4.609,0" transform="translate(-701.711 -57.024)" fill="none"/>
    </clipPath>
    <linearGradient id="linear-gradient-41" x1="-19.398" y1="23.139" x2="-19.37" y2="23.139" xlink:href="#linear-gradient"/>
    <clipPath id="clip-path-42">
      <path id="Path_215" data-name="Path 215" d="M704.016,0a2.3,2.3,0,0,0-2.3,2.231V6.247a2.306,2.306,0,0,0,4.609,0V2.231A2.3,2.3,0,0,0,704.016,0Z" transform="translate(-701.711)" fill="none"/>
    </clipPath>
    <linearGradient id="linear-gradient-42" x1="-18.766" y1="23.754" x2="-18.739" y2="23.754" xlink:href="#linear-gradient"/>
    <clipPath id="clip-path-43">
      <path id="Path_216" data-name="Path 216" d="M118.808,496.378a1.519,1.519,0,1,1,1.519,1.519,1.521,1.521,0,0,1-1.519-1.519m-4.462,0a5.982,5.982,0,1,0,5.982-5.982,5.989,5.989,0,0,0-5.982,5.982" transform="translate(-114.346 -490.396)" fill="none"/>
    </clipPath>
    <linearGradient id="linear-gradient-43" x1="-1.502" y1="6.409" x2="-1.488" y2="6.409" xlink:href="#linear-gradient"/>
    <clipPath id="clip-path-44">
      <path id="Path_217" data-name="Path 217" d="M766.56,122.5a1.519,1.519,0,1,1,1.519,1.519,1.521,1.521,0,0,1-1.519-1.519m-4.463,0a5.982,5.982,0,1,0,5.982-5.982A5.989,5.989,0,0,0,762.1,122.5" transform="translate(-762.097 -116.514)" fill="none"/>
    </clipPath>
    <linearGradient id="linear-gradient-44" x1="-10.831" y1="11.794" x2="-10.817" y2="11.794" xlink:href="#linear-gradient"/>
  </defs>
  <g id="Group_262" data-name="Group 262" transform="translate(0)">
    <g id="Group_175" data-name="Group 175" transform="translate(100.015 23.872)">
      <g id="Group_174" data-name="Group 174" clip-path="url(#clip-path)">
        <rect id="Rectangle_133" data-name="Rectangle 133" width="98.11" height="95.35" transform="translate(-28.972 23.702) rotate(-39.593)" fill="url(#linear-gradient)"/>
      </g>
    </g>
    <g id="Group_177" data-name="Group 177" transform="translate(96.349 129.58)">
      <g id="Group_176" data-name="Group 176" clip-path="url(#clip-path-2)">
        <rect id="Rectangle_134" data-name="Rectangle 134" width="53.692" height="51.463" transform="translate(-14.547 11.772) rotate(-39.593)" fill="url(#linear-gradient-2)"/>
      </g>
    </g>
    <g id="Group_179" data-name="Group 179" transform="translate(100.963 126.619)">
      <g id="Group_178" data-name="Group 178" clip-path="url(#clip-path-3)">
        <rect id="Rectangle_135" data-name="Rectangle 135" width="38.821" height="36.679" transform="translate(-9.535 7.627) rotate(-39.593)" fill="url(#linear-gradient-3)"/>
      </g>
    </g>
    <g id="Group_181" data-name="Group 181" transform="translate(119.098 30.774)">
      <g id="Group_180" data-name="Group 180" clip-path="url(#clip-path-4)">
        <rect id="Rectangle_136" data-name="Rectangle 136" width="63.512" height="59.784" transform="translate(-14.95 12.105) rotate(-39.593)" fill="url(#linear-gradient-4)"/>
      </g>
    </g>
    <g id="Group_183" data-name="Group 183" transform="translate(99.79 134.72)">
      <g id="Group_182" data-name="Group 182" clip-path="url(#clip-path-5)">
        <rect id="Rectangle_137" data-name="Rectangle 137" width="12.831" height="12.358" transform="translate(-3.835 2.913) rotate(-39.593)" fill="url(#linear-gradient-5)"/>
      </g>
    </g>
    <g id="Group_185" data-name="Group 185" transform="translate(39.887 62.455)">
      <g id="Group_184" data-name="Group 184" clip-path="url(#clip-path-6)">
        <rect id="Rectangle_138" data-name="Rectangle 138" width="135.538" height="139.584" transform="translate(-55.753 45.853) rotate(-39.593)" fill="url(#linear-gradient-6)"/>
      </g>
    </g>
    <g id="Group_187" data-name="Group 187" transform="translate(145.891 77.452)">
      <g id="Group_186" data-name="Group 186" clip-path="url(#clip-path-7)">
        <rect id="Rectangle_139" data-name="Rectangle 139" width="42.565" height="40.859" transform="translate(-12.468 9.434) rotate(-39.593)" fill="url(#linear-gradient-7)"/>
      </g>
    </g>
    <g id="Group_189" data-name="Group 189" transform="translate(142.607 93.784)">
      <g id="Group_188" data-name="Group 188" clip-path="url(#clip-path-8)">
        <rect id="Rectangle_140" data-name="Rectangle 140" width="42.002" height="40.392" transform="matrix(0.771, -0.637, 0.637, 0.771, -12.466, 9.433)" fill="url(#linear-gradient-8)"/>
      </g>
    </g>
    <g id="Group_191" data-name="Group 191" transform="translate(134.117 111.424)">
      <g id="Group_190" data-name="Group 190" clip-path="url(#clip-path-9)">
        <rect id="Rectangle_141" data-name="Rectangle 141" width="42.004" height="40.395" transform="matrix(0.771, -0.637, 0.637, 0.771, -11.737, 9.434)" fill="url(#linear-gradient-9)"/>
      </g>
    </g>
    <g id="Group_193" data-name="Group 193" transform="translate(77.225 153.247)">
      <g id="Group_192" data-name="Group 192" clip-path="url(#clip-path-10)">
        <rect id="Rectangle_142" data-name="Rectangle 142" width="64.329" height="64.65" transform="matrix(0.771, -0.637, 0.637, 0.771, -23.4, 19.094)" fill="url(#linear-gradient-10)"/>
      </g>
    </g>
    <g id="Group_195" data-name="Group 195" transform="translate(53.728 15.147)">
      <g id="Group_194" data-name="Group 194" clip-path="url(#clip-path-11)">
        <rect id="Rectangle_143" data-name="Rectangle 143" width="56.406" height="51.319" transform="matrix(0.771, -0.637, 0.637, 0.771, -9.73, 7.787)" fill="url(#linear-gradient-11)"/>
      </g>
    </g>
    <g id="Group_197" data-name="Group 197" transform="translate(5.103 84.932)">
      <g id="Group_196" data-name="Group 196" clip-path="url(#clip-path-12)">
        <rect id="Rectangle_144" data-name="Rectangle 144" width="45.156" height="51.741" transform="translate(-29.035 24.014) rotate(-39.593)" fill="url(#linear-gradient-12)"/>
      </g>
    </g>
    <g id="Group_199" data-name="Group 199" transform="translate(25.832 177.713)">
      <g id="Group_198" data-name="Group 198" clip-path="url(#clip-path-13)">
        <rect id="Rectangle_145" data-name="Rectangle 145" width="108.102" height="100.189" transform="matrix(0.771, -0.637, 0.637, 0.771, -22.037, 17.987)" fill="url(#linear-gradient-13)"/>
      </g>
    </g>
    <g id="Group_201" data-name="Group 201" transform="translate(203.205 136.557)">
      <g id="Group_200" data-name="Group 200" clip-path="url(#clip-path-14)">
        <rect id="Rectangle_146" data-name="Rectangle 146" width="14.184" height="15.094" transform="translate(-7.029 5.61) rotate(-39.593)" fill="url(#linear-gradient-14)"/>
      </g>
    </g>
    <g id="Group_203" data-name="Group 203" transform="translate(188.141 56.821)">
      <g id="Group_202" data-name="Group 202" clip-path="url(#clip-path-15)">
        <rect id="Rectangle_147" data-name="Rectangle 147" width="44.316" height="47.077" transform="matrix(0.771, -0.637, 0.637, 0.771, -21.326, 17.392)" fill="url(#linear-gradient-15)"/>
      </g>
    </g>
    <g id="Group_205" data-name="Group 205" transform="translate(131.383 177.712)">
      <g id="Group_204" data-name="Group 204" clip-path="url(#clip-path-16)">
        <rect id="Rectangle_148" data-name="Rectangle 148" width="74.939" height="65.563" transform="translate(-7.227 5.977) rotate(-39.593)" fill="url(#linear-gradient-16)"/>
      </g>
    </g>
    <g id="Group_207" data-name="Group 207" transform="translate(136.181 188.449)">
      <g id="Group_206" data-name="Group 206" clip-path="url(#clip-path-17)">
        <rect id="Rectangle_149" data-name="Rectangle 149" width="81.607" height="76.32" transform="translate(-18.022 14.507) rotate(-39.593)" fill="url(#linear-gradient-17)"/>
      </g>
    </g>
    <g id="Group_209" data-name="Group 209" transform="translate(171.686 196.348)">
      <g id="Group_208" data-name="Group 208" clip-path="url(#clip-path-18)">
        <rect id="Rectangle_150" data-name="Rectangle 150" width="16.448" height="18.601" transform="translate(-10.081 8.338) rotate(-39.593)" fill="url(#linear-gradient-18)"/>
      </g>
    </g>
    <g id="Group_211" data-name="Group 211" transform="translate(181.701 196.355)">
      <g id="Group_210" data-name="Group 210" clip-path="url(#clip-path-19)">
        <rect id="Rectangle_151" data-name="Rectangle 151" width="18.322" height="20.159" transform="translate(-10.233 8.351) rotate(-39.593)" fill="url(#linear-gradient-19)"/>
      </g>
    </g>
    <g id="Group_213" data-name="Group 213" transform="translate(191.684 196.354)">
      <g id="Group_212" data-name="Group 212" clip-path="url(#clip-path-20)">
        <rect id="Rectangle_152" data-name="Rectangle 152" width="20.043" height="21.582" transform="matrix(0.771, -0.637, 0.637, 0.771, -10.331, 8.351)" fill="url(#linear-gradient-20)"/>
      </g>
    </g>
    <g id="Group_215" data-name="Group 215" transform="translate(159.9 196.354)">
      <g id="Group_214" data-name="Group 214" clip-path="url(#clip-path-21)">
        <rect id="Rectangle_153" data-name="Rectangle 153" width="18.323" height="20.159" transform="translate(-10.233 8.351) rotate(-39.593)" fill="url(#linear-gradient-21)"/>
      </g>
    </g>
    <g id="Group_217" data-name="Group 217" transform="translate(147.88 196.354)">
      <g id="Group_216" data-name="Group 216" clip-path="url(#clip-path-22)">
        <rect id="Rectangle_154" data-name="Rectangle 154" width="20.042" height="21.582" transform="translate(-10.331 8.351) rotate(-39.593)" fill="url(#linear-gradient-22)"/>
      </g>
    </g>
    <g id="Group_219" data-name="Group 219" transform="translate(135.248 160.913)">
      <g id="Group_218" data-name="Group 218" clip-path="url(#clip-path-23)">
        <rect id="Rectangle_155" data-name="Rectangle 155" width="33.75" height="33.044" transform="matrix(0.771, -0.637, 0.637, 0.771, -10.638, 8.56)" fill="url(#linear-gradient-23)"/>
      </g>
    </g>
    <g id="Group_221" data-name="Group 221" transform="translate(188.306 160.271)">
      <g id="Group_220" data-name="Group 220" clip-path="url(#clip-path-24)">
        <rect id="Rectangle_156" data-name="Rectangle 156" width="29.595" height="29.67" transform="translate(-10.63 8.663) rotate(-39.593)" fill="url(#linear-gradient-24)"/>
      </g>
    </g>
    <g id="Group_223" data-name="Group 223" transform="translate(156.856 153.334)">
      <g id="Group_222" data-name="Group 222" clip-path="url(#clip-path-25)">
        <rect id="Rectangle_157" data-name="Rectangle 157" width="47.207" height="45.926" transform="translate(-13.881 11.481) rotate(-39.593)" fill="url(#linear-gradient-25)"/>
      </g>
    </g>
    <g id="Group_225" data-name="Group 225" transform="translate(2.358 26.972)">
      <g id="Group_224" data-name="Group 224" clip-path="url(#clip-path-26)">
        <rect id="Rectangle_158" data-name="Rectangle 158" width="78.97" height="75.977" transform="matrix(0.771, -0.637, 0.637, 0.771, -21.73, 17.79)" fill="url(#linear-gradient-26)"/>
      </g>
    </g>
    <g id="Group_227" data-name="Group 227" transform="translate(0 32.511)">
      <g id="Group_226" data-name="Group 226" clip-path="url(#clip-path-27)">
        <rect id="Rectangle_159" data-name="Rectangle 159" width="87.849" height="87.812" transform="matrix(0.771, -0.637, 0.637, 0.771, -30.634, 25.282)" fill="url(#linear-gradient-27)"/>
      </g>
    </g>
    <g id="Group_229" data-name="Group 229" transform="translate(9.127 41.636)">
      <g id="Group_228" data-name="Group 228" clip-path="url(#clip-path-28)">
        <rect id="Rectangle_160" data-name="Rectangle 160" width="8.523" height="8.486" transform="matrix(0.771, -0.637, 0.637, 0.771, -3.174, 2.398)" fill="url(#linear-gradient-28)"/>
      </g>
    </g>
    <g id="Group_231" data-name="Group 231" transform="translate(6.899 39.407)">
      <g id="Group_230" data-name="Group 230" clip-path="url(#clip-path-29)">
        <rect id="Rectangle_161" data-name="Rectangle 161" width="14.959" height="14.829" transform="matrix(0.771, -0.637, 0.637, 0.771, -5.446, 4.098)" fill="url(#linear-gradient-29)"/>
      </g>
    </g>
    <g id="Group_233" data-name="Group 233" transform="translate(0.419 27.239)">
      <g id="Group_232" data-name="Group 232" clip-path="url(#clip-path-30)">
        <rect id="Rectangle_162" data-name="Rectangle 162" width="22.499" height="23.139" transform="translate(-9.857 7.56) rotate(-39.593)" fill="url(#linear-gradient-30)"/>
      </g>
    </g>
    <g id="Group_235" data-name="Group 235" transform="translate(7.168 158.322)">
      <g id="Group_234" data-name="Group 234" clip-path="url(#clip-path-31)">
        <rect id="Rectangle_163" data-name="Rectangle 163" width="9.127" height="8.671" transform="matrix(0.771, -0.637, 0.637, 0.771, -2.264, 1.872)" fill="url(#linear-gradient-31)"/>
      </g>
    </g>
    <g id="Group_237" data-name="Group 237" transform="translate(20.555 158.322)">
      <g id="Group_236" data-name="Group 236" clip-path="url(#clip-path-32)">
        <rect id="Rectangle_164" data-name="Rectangle 164" width="9.471" height="8.956" transform="translate(-2.264 1.872) rotate(-39.593)" fill="url(#linear-gradient-32)"/>
      </g>
    </g>
    <g id="Group_239" data-name="Group 239" transform="translate(15.699 163.549)">
      <g id="Group_238" data-name="Group 238" clip-path="url(#clip-path-33)">
        <rect id="Rectangle_165" data-name="Rectangle 165" width="8.484" height="8.973" transform="translate(-3.945 3.263) rotate(-39.593)" fill="url(#linear-gradient-33)"/>
      </g>
    </g>
    <g id="Group_241" data-name="Group 241" transform="translate(15.699 149.715)">
      <g id="Group_240" data-name="Group 240" clip-path="url(#clip-path-34)">
        <rect id="Rectangle_166" data-name="Rectangle 166" width="8.769" height="9.317" transform="matrix(0.771, -0.637, 0.637, 0.771, -4.164, 3.444)" fill="url(#linear-gradient-34)"/>
      </g>
    </g>
    <g id="Group_243" data-name="Group 243" transform="translate(197.268 115.383)">
      <g id="Group_242" data-name="Group 242" clip-path="url(#clip-path-35)">
        <rect id="Rectangle_167" data-name="Rectangle 167" width="8.973" height="8.484" transform="translate(-2.145 1.774) rotate(-39.593)" fill="url(#linear-gradient-35)"/>
      </g>
    </g>
    <g id="Group_245" data-name="Group 245" transform="translate(210.655 115.383)">
      <g id="Group_244" data-name="Group 244" clip-path="url(#clip-path-36)">
        <rect id="Rectangle_168" data-name="Rectangle 168" width="9.317" height="8.769" transform="translate(-2.145 1.774) rotate(-39.593)" fill="url(#linear-gradient-36)"/>
      </g>
    </g>
    <g id="Group_247" data-name="Group 247" transform="translate(205.649 120.486)">
      <g id="Group_246" data-name="Group 246" clip-path="url(#clip-path-37)">
        <rect id="Rectangle_169" data-name="Rectangle 169" width="8.671" height="9.127" transform="translate(-3.945 3.263) rotate(-39.593)" fill="url(#linear-gradient-37)"/>
      </g>
    </g>
    <g id="Group_249" data-name="Group 249" transform="translate(205.649 106.653)">
      <g id="Group_248" data-name="Group 248" clip-path="url(#clip-path-38)">
        <rect id="Rectangle_170" data-name="Rectangle 170" width="8.955" height="9.471" transform="translate(-4.164 3.444) rotate(-39.593)" fill="url(#linear-gradient-38)"/>
      </g>
    </g>
    <g id="Group_251" data-name="Group 251" transform="translate(161.791 8.643)">
      <g id="Group_250" data-name="Group 250" clip-path="url(#clip-path-39)">
        <rect id="Rectangle_171" data-name="Rectangle 171" width="9.127" height="8.671" transform="translate(-2.264 1.872) rotate(-39.593)" fill="url(#linear-gradient-39)"/>
      </g>
    </g>
    <g id="Group_253" data-name="Group 253" transform="translate(175.179 8.643)">
      <g id="Group_252" data-name="Group 252" clip-path="url(#clip-path-40)">
        <rect id="Rectangle_172" data-name="Rectangle 172" width="9.471" height="8.955" transform="matrix(0.771, -0.637, 0.637, 0.771, -2.264, 1.872)" fill="url(#linear-gradient-40)"/>
      </g>
    </g>
    <g id="Group_255" data-name="Group 255" transform="translate(170.23 13.834)">
      <g id="Group_254" data-name="Group 254" clip-path="url(#clip-path-41)">
        <rect id="Rectangle_173" data-name="Rectangle 173" width="8.671" height="9.127" transform="translate(-3.945 3.263) rotate(-39.593)" fill="url(#linear-gradient-41)"/>
      </g>
    </g>
    <g id="Group_257" data-name="Group 257" transform="translate(170.23)">
      <g id="Group_256" data-name="Group 256" clip-path="url(#clip-path-42)">
        <rect id="Rectangle_174" data-name="Rectangle 174" width="8.956" height="9.471" transform="translate(-4.164 3.444) rotate(-39.593)" fill="url(#linear-gradient-42)"/>
      </g>
    </g>
    <g id="Group_259" data-name="Group 259" transform="translate(27.74 118.967)">
      <g id="Group_258" data-name="Group 258" clip-path="url(#clip-path-43)">
        <rect id="Rectangle_175" data-name="Rectangle 175" width="16.844" height="16.844" transform="matrix(0.771, -0.637, 0.637, 0.771, -5.876, 4.86)" fill="url(#linear-gradient-43)"/>
      </g>
    </g>
    <g id="Group_261" data-name="Group 261" transform="translate(184.879 28.265)">
      <g id="Group_260" data-name="Group 260" clip-path="url(#clip-path-44)">
        <rect id="Rectangle_176" data-name="Rectangle 176" width="16.844" height="16.844" transform="matrix(0.771, -0.637, 0.637, 0.771, -5.876, 4.859)" fill="url(#linear-gradient-44)"/>
      </g>
    </g>
  </g>
</svg>
